<!DOCTYPE svg PUBLIC "-//W3C//DTD SVG 20010904//EN" "http://www.w3.org/TR/2001/REC-SVG-20010904/DTD/svg10.dtd">
<svg version="1.0" xmlns="http://www.w3.org/2000/svg" width="480px" height="480px" viewBox="0 0 4800 4800" preserveAspectRatio="xMidYMid meet">
<g id="layer1" fill="#0b306c" stroke="none">
 <path d="M220 4784 c0 -28 65 -84 98 -84 32 0 82 -33 82 -55 0 -7 7 -18 15 -25 9 -7 13 -20 11 -29 -3 -9 3 -32 12 -51 13 -27 24 -35 44 -36 36 -1 57 -20 51 -44 -4 -15 2 -22 23 -31 16 -5 36 -16 44 -23 20 -18 59 -26 66 -15 8 13 45 11 70 -4 12 -6 40 -22 63 -35 28 -15 50 -39 71 -75 18 -32 42 -59 64 -71 20 -10 42 -29 51 -42 9 -15 29 -25 52 -29 21 -3 52 -12 68 -19 20 -9 38 -10 54 -4 15 5 43 4 75 -3 86 -19 172 -18 207 3 l30 18 -20 29 c-12 16 -21 33 -21 38 0 5 -15 27 -33 49 -18 21 -39 59 -46 84 -16 55 -91 135 -120 127 -10 -2 -25 -1 -32 4 -11 7 -9 13 8 27 17 12 20 21 13 32 -16 25 -11 58 13 83 30 32 100 35 156 7 42 -22 84 -21 123 3 13 8 30 7 68 -5 49 -16 53 -16 83 3 40 24 59 24 122 0 28 -10 91 -22 140 -26 50 -3 99 -12 110 -19 39 -25 63 -25 85 -1 14 15 38 24 72 28 41 5 59 14 88 42 40 39 52 42 70 20 19 -22 42 -18 74 15 38 39 30 71 -27 105 l-44 25 -1066 0 c-971 0 -1067 -1 -1067 -16z"/>
 <path d="M4528 4779 c24 -16 36 -18 46 -10 10 8 18 5 36 -14 19 -20 30 -24 55 -19 18 3 55 -1 84 -10 l51 -15 0 45 0 44 -152 0 -153 0 33 -21z"/>
 <path d="M3599 4743 c-1 -2 -2 -6 -3 -10 -1 -5 -12 -29 -24 -55 -12 -26 -22 -52 -22 -59 0 -7 -9 -9 -22 -6 -12 4 -28 1 -35 -5 -29 -24 -3 -88 31 -75 7 3 23 -1 33 -8 11 -8 56 -16 102 -19 l81 -4 27 45 c14 24 37 49 50 54 21 8 24 14 21 51 -3 40 -6 44 -50 65 -32 16 -70 24 -117 26 -39 1 -72 1 -72 0z"/>
 <path d="M4318 4662 c-46 -39 -45 -56 7 -107 26 -25 52 -45 57 -45 6 0 26 -12 45 -26 42 -32 98 -41 149 -23 22 7 47 12 56 10 27 -4 58 18 58 40 0 37 29 67 71 74 40 7 40 7 37 48 l-3 42 -75 9 c-51 6 -84 5 -105 -3 -39 -14 -132 -15 -140 -1 -3 5 -34 8 -68 7 -47 -1 -68 -7 -89 -25z"/>
 </g>
<g id="layer2" fill="#9eaed1" stroke="none">
 <path d="M2693 4635 c-17 -24 -23 -26 -41 -16 -27 14 -34 14 -56 -2 -18 -13 -18 -15 -1 -48 10 -19 27 -44 38 -56 22 -24 20 -26 -30 -23 -20 1 -39 -6 -52 -19 -26 -26 -29 -26 -56 -1 -18 17 -27 19 -48 11 -52 -20 -82 -125 -43 -149 12 -7 59 -92 54 -97 -8 -7 -64 -8 -76 -2 -6 5 -16 6 -22 2 -5 -3 -26 1 -46 10 -21 8 -45 13 -55 10 -9 -3 -21 0 -25 6 -5 9 -10 8 -19 -5 -11 -14 -16 -15 -47 -2 -19 8 -56 33 -83 55 -35 29 -64 43 -104 51 -31 6 -63 13 -71 15 -8 3 -22 0 -30 -5 -11 -7 -19 -4 -30 10 -24 31 -43 29 -44 -5 -1 -40 -27 -43 -48 -6 l-17 30 -109 -5 -110 -5 -61 60 c-45 45 -65 58 -81 54 -33 -9 -50 -43 -50 -100 0 -48 3 -56 43 -98 24 -25 46 -43 49 -40 3 4 -5 28 -18 55 -37 77 -39 96 -12 104 40 10 48 7 96 -42 37 -39 56 -50 92 -56 24 -4 50 -11 56 -17 16 -13 206 -60 213 -53 3 3 7 10 7 15 1 5 3 12 4 17 2 4 3 16 4 27 1 18 7 20 69 18 86 -2 125 -17 133 -52 11 -48 33 -86 62 -108 l30 -22 69 20 c37 12 87 23 109 26 41 5 42 4 48 -31 4 -23 17 -42 37 -57 34 -24 40 -21 91 43 l31 39 -27 28 c-14 15 -26 33 -26 41 0 7 -9 24 -21 36 -24 26 -18 44 14 44 31 0 67 27 67 50 0 11 12 30 26 43 22 21 33 24 68 19 22 -3 50 -11 61 -18 29 -21 53 -17 102 16 52 36 62 34 32 -4 -11 -14 -19 -32 -16 -39 2 -6 -3 -17 -12 -24 -22 -17 -36 -16 -22 1 8 10 9 16 1 21 -17 11 -29 -4 -26 -33 3 -20 9 -27 24 -26 12 0 19 -3 16 -7 -6 -11 73 -52 114 -60 20 -4 36 -1 43 7 14 17 41 6 72 -32 39 -46 79 -36 160 42 35 33 85 71 110 83 40 19 46 26 36 38 -7 8 -24 13 -38 12 -14 -2 -35 2 -46 8 -11 6 -26 8 -33 6 -7 -3 -19 0 -27 7 -10 8 -19 8 -34 0 -26 -13 -26 -21 -1 -43 29 -25 25 -40 -17 -60 -21 -9 -50 -27 -65 -39 -26 -20 -29 -21 -46 -5 -20 18 -48 22 -56 8 -7 -10 -83 -3 -109 11 -13 7 -15 13 -8 27 8 15 19 17 58 14 37 -4 52 -1 62 11 7 9 10 16 5 17 -5 1 -20 2 -34 2 -25 2 -27 7 -15 38 4 11 -5 27 -24 47 -26 26 -28 32 -16 42 8 7 15 21 15 32 0 26 20 12 21 -15 0 -12 9 -35 20 -52 19 -31 25 -43 34 -72 4 -10 9 -13 14 -7 18 18 15 50 -6 84 -12 19 -24 52 -28 72 -4 21 -13 42 -19 48 -23 19 -95 39 -164 45 -67 7 -69 7 -89 -20z m85 -21 c20 -36 3 -59 -56 -77 -30 -9 -58 -14 -61 -12 -2 3 5 15 17 28 12 13 22 28 22 34 0 12 39 42 57 42 7 1 16 -6 21 -15z m-44 -130 c22 -8 20 -34 -1 -34 -19 1 -53 22 -53 34 0 8 33 8 54 0z"/>
 <path d="M1 4538 c0 -40 3 -67 6 -60 2 6 13 12 22 12 23 0 75 26 91 45 6 8 8 20 4 26 -5 9 -11 7 -21 -6 -7 -11 -14 -15 -14 -9 -1 5 -2 16 -3 24 0 8 -8 14 -17 12 -9 -1 -19 4 -23 13 -3 8 -15 15 -26 15 -18 0 -20 -6 -19 -72z"/>
 <path d="M0 4387 c0 -35 3 -38 63 -68 34 -18 78 -45 97 -60 20 -17 46 -29 63 -29 16 0 61 -11 100 -24 40 -13 88 -27 107 -31 19 -4 40 -11 45 -15 6 -4 28 -13 50 -20 22 -7 49 -19 60 -26 13 -9 25 -10 35 -4 26 16 46 11 79 -21 39 -37 29 -61 -13 -34 -22 14 -32 16 -51 7 -14 -7 -25 -20 -25 -30 0 -27 35 -68 62 -75 13 -3 48 -15 78 -26 45 -16 55 -24 53 -41 -4 -26 15 -63 27 -55 4 3 6 14 3 24 -6 23 58 71 95 71 27 0 69 26 83 51 16 30 -16 71 -50 63 -14 -4 -30 -11 -36 -15 -5 -5 -23 -9 -40 -9 -26 0 -34 6 -46 33 -12 28 -19 32 -59 35 -29 2 -54 11 -70 26 -39 35 -77 56 -102 56 -12 0 -40 6 -63 14 -22 8 -69 18 -105 24 -74 11 -259 82 -305 117 -17 12 -42 34 -55 49 -14 14 -32 26 -40 26 -9 0 -21 5 -28 12 -9 9 -12 4 -12 -25z"/>
 <path d="M3366 4413 c-4 -4 3 -15 15 -24 28 -21 20 -41 -24 -62 -19 -9 -58 -39 -87 -66 -45 -42 -50 -52 -41 -69 8 -15 25 -21 78 -27 89 -9 135 -29 157 -65 9 -17 29 -33 44 -36 70 -16 129 -39 149 -57 18 -16 22 -27 17 -57 -8 -51 31 -80 77 -56 77 39 206 50 238 21 27 -24 86 -22 121 3 29 22 36 22 100 -5 18 -7 28 -9 56 -11 28 -2 43 -39 32 -77 -11 -41 -5 -52 34 -60 18 -4 59 -16 92 -27 l58 -20 30 36 c17 20 45 59 64 86 l34 49 -25 19 c-30 24 -31 36 -5 69 11 14 20 32 20 41 0 26 41 82 60 82 28 0 46 -24 66 -82 18 -56 49 -108 65 -108 5 0 9 70 9 165 0 182 -2 187 -58 140 -26 -21 -37 -24 -70 -19 -23 3 -48 1 -60 -5 -24 -13 -42 -67 -42 -124 0 -43 -13 -74 -40 -97 -14 -11 -20 -35 -24 -95 -2 -44 -5 -81 -5 -83 -1 -2 -26 -1 -58 3 -65 7 -79 20 -86 83 -5 50 -40 85 -120 123 l-47 23 -30 -23 c-28 -20 -32 -21 -52 -6 -33 23 -158 21 -189 -3 -13 -10 -46 -24 -72 -32 -44 -12 -51 -11 -92 10 -24 12 -62 40 -85 61 -23 22 -50 39 -61 39 -26 0 -132 50 -142 67 -11 18 -91 53 -121 53 -20 0 -22 5 -20 42 2 57 23 70 64 40 l30 -23 10 26 c9 24 13 25 47 19 66 -12 62 -44 -4 -44 -37 0 -51 -15 -27 -28 25 -14 103 15 114 42 4 11 5 25 3 29 -6 10 -52 30 -75 32 -34 4 -46 14 -41 33 9 36 -56 80 -81 55z"/>
 <path d="M2062 4108 c-7 -7 -24 -12 -39 -13 -20 0 -31 -8 -41 -28 -13 -27 -15 -28 -32 -12 -11 10 -47 23 -82 31 -59 12 -64 12 -77 -6 -13 -19 -14 -19 -33 5 -27 35 -43 21 -17 -14 34 -46 63 -57 93 -37 25 15 26 15 42 -9 13 -20 22 -24 43 -19 14 4 32 12 40 18 17 13 73 8 83 -7 4 -7 5 -22 2 -33 -7 -26 22 -87 36 -79 6 4 7 13 1 23 -4 9 -11 32 -14 50 -6 31 -4 34 28 48 45 18 65 62 39 81 -22 16 -56 17 -72 1z"/>
 <path d="M0 4050 c0 -38 2 -40 24 -34 26 6 46 -17 46 -55 0 -11 10 -27 22 -35 18 -13 24 -13 37 -2 24 20 106 39 143 33 18 -2 47 -10 65 -18 27 -11 37 -10 73 6 l43 19 22 -28 c14 -18 25 -24 29 -17 4 6 -6 25 -23 42 -29 29 -31 29 -60 14 -41 -20 -80 -19 -116 5 -32 21 -80 27 -90 10 -3 -5 -17 -10 -31 -10 -31 0 -104 23 -104 32 0 11 -61 78 -71 78 -5 0 -9 -18 -9 -40z"/>
 <path d="M2443 3927 c-4 -8 -18 -19 -31 -26 -12 -7 -20 -16 -17 -22 4 -6 13 -5 25 1 30 16 70 12 102 -11 23 -17 28 -26 23 -48 -4 -21 1 -31 31 -55 24 -19 39 -25 46 -18 6 6 6 12 -1 16 -6 4 -11 13 -11 21 0 21 -51 94 -71 100 -9 3 -19 15 -22 25 -3 14 -10 18 -21 14 -9 -3 -23 -1 -30 5 -11 9 -16 9 -23 -2z"/>
 <path d="M2880 3901 c-5 -11 -10 -39 -10 -63 0 -42 -21 -88 -41 -88 -5 0 -9 6 -9 14 0 8 -5 27 -10 42 l-11 28 -25 -27 c-22 -24 -29 -45 -13 -40 6 2 104 -78 106 -87 1 -3 4 -17 8 -32 8 -32 71 -76 86 -61 16 16 -1 42 -36 59 -19 8 -36 22 -39 30 -8 20 33 34 76 28 24 -4 38 -1 47 10 19 22 40 20 95 -9 26 -14 56 -25 67 -25 10 0 27 -9 36 -20 14 -16 25 -18 67 -13 28 3 60 5 71 4 58 -5 73 -3 106 12 24 12 43 15 58 9 l23 -8 -27 -32 c-22 -26 -26 -40 -23 -72 2 -21 2 -37 -1 -35 -4 5 -66 -45 -66 -54 -1 -3 -6 -16 -13 -28 -7 -13 -8 -24 -3 -28 9 -5 31 23 28 35 -1 3 18 23 41 45 40 36 43 42 40 81 -1 23 0 40 5 37 4 -2 15 9 25 26 20 36 71 65 88 50 8 -7 14 -6 19 1 3 5 4 11 1 11 -3 1 -9 2 -13 3 -5 1 -12 4 -18 7 -5 4 -35 14 -65 22 -33 10 -60 25 -68 37 -16 26 -31 18 -25 -12 6 -39 -9 -51 -43 -33 -39 20 -51 19 -64 -5 -28 -52 -128 -39 -163 20 -13 21 -23 28 -40 24 -12 -2 -34 1 -49 7 -22 9 -35 8 -64 -6 -33 -15 -37 -15 -61 0 -21 14 -24 22 -19 47 3 17 6 38 6 48 0 12 7 17 23 16 12 0 23 4 24 9 2 5 -9 10 -25 10 -15 1 -40 6 -55 13 -36 15 -34 15 -47 -7z"/>
 <path d="M2095 3870 c-4 -6 0 -21 8 -34 10 -14 12 -28 6 -38 -13 -23 13 -40 53 -36 25 2 33 8 33 23 0 15 -8 21 -34 25 -27 4 -35 10 -38 30 -4 30 -18 46 -28 30z"/>
 <path d="M33 3863 c-22 -8 -15 -32 7 -26 16 4 23 -2 35 -31 8 -19 15 -46 15 -58 -1 -22 -2 -22 -16 5 -20 36 -39 25 -20 -12 19 -36 35 -47 69 -49 41 -3 47 -9 47 -45 -1 -20 -11 -44 -30 -66 -16 -19 -27 -38 -23 -43 3 -6 10 -5 16 1 6 6 18 11 27 11 24 0 50 32 45 55 -15 75 -14 85 6 95 15 9 24 8 36 -2 9 -7 25 -11 36 -10 17 3 19 0 14 -26 -4 -20 -1 -34 8 -42 8 -7 14 -15 13 -18 -8 -31 19 -85 67 -136 30 -31 55 -66 55 -76 0 -23 35 -46 45 -29 4 5 0 18 -8 27 -9 10 -25 37 -35 60 -11 24 -41 69 -67 101 -41 50 -47 63 -49 108 -2 69 -29 107 -80 111 -31 3 -40 9 -51 35 -7 18 -23 38 -34 45 -18 10 -24 9 -42 -9 -19 -19 -23 -20 -31 -5 -11 20 -39 35 -55 29z"/>
 <path d="M4765 3850 c-17 -19 -17 -21 0 -40 27 -29 35 -25 35 20 0 45 -8 49 -35 20z"/>
 <path d="M2277 3827 c-9 -7 -21 -25 -26 -40 -9 -22 -8 -29 4 -33 28 -11 99 55 81 74 -12 12 -43 11 -59 -1z"/>
 <path d="M3327 3833 c-3 -3 2 -22 13 -43 14 -28 24 -36 42 -34 13 1 24 3 26 4 1 2 7 3 12 4 6 0 10 4 10 9 0 6 -5 9 -12 6 -36 -10 -47 -6 -58 21 -14 33 -24 43 -33 33z"/>
 <path d="M3883 3794 l-26 -26 21 -21 c18 -18 25 -19 47 -9 34 16 49 53 27 70 -24 18 -40 15 -69 -14z"/>
 <path d="M3023 3605 c-12 -9 -26 -14 -30 -13 -4 2 -9 0 -10 -4 -2 -5 -1 -7 1 -5 2 1 13 -6 24 -16 11 -10 26 -15 36 -11 9 3 22 2 29 -3 16 -11 47 -10 45 2 -1 6 -8 9 -15 7 -7 -2 -10 3 -7 12 3 8 -5 21 -18 30 -28 20 -28 20 -55 1z"/>
 <path d="M4016 3591 c-7 -11 81 -71 104 -71 9 0 21 5 28 12 6 6 14 9 17 6 3 -3 -11 -21 -31 -39 -20 -19 -49 -46 -66 -61 -16 -16 -26 -33 -22 -39 5 -8 12 -4 24 11 18 24 42 24 183 4 37 -5 51 -3 66 10 16 15 21 15 59 -2 23 -9 42 -25 44 -35 5 -30 23 -14 23 20 1 18 4 35 8 39 17 17 -18 34 -71 34 -46 0 -66 7 -123 39 -60 35 -74 39 -115 35 -36 -4 -53 -1 -73 13 -41 31 -49 34 -55 24z"/>
 <path d="M3145 3559 c-4 -6 3 -13 15 -16 12 -3 19 -11 16 -19 -8 -20 10 -26 25 -8 11 14 10 19 -10 35 -26 22 -37 24 -46 8z"/>
 <path d="M4665 3540 c-8 -14 7 -18 57 -16 27 0 48 6 48 11 0 12 -98 16 -105 5z"/>
 <path d="M115 3480 c-3 -5 -3 -16 2 -22 4 -7 8 -19 9 -26 3 -20 25 -42 35 -36 5 3 1 17 -9 32 -11 15 -17 32 -15 39 5 15 -14 26 -22 13z"/>
 <path d="M3865 3358 c-14 -16 -25 -35 -25 -42 0 -23 25 -47 65 -60 22 -8 41 -21 43 -29 6 -29 -91 -57 -114 -34 -13 13 -41 7 -58 -12 -11 -12 -14 -21 -7 -26 10 -5 14 0 13 15 -1 9 53 4 73 -7 25 -13 90 -14 123 -2 20 8 22 12 12 24 -9 11 -10 18 -1 29 8 9 8 28 1 66 -6 30 -12 56 -15 59 -3 2 9 10 27 15 52 17 39 26 -39 31 -70 3 -73 2 -98 -27z"/>
 <path d="M3361 3352 c-8 -15 -5 -24 18 -46 17 -16 31 -23 35 -18 8 13 -8 54 -27 71 -13 10 -17 9 -26 -7z"/>
 <path d="M1775 3249 c-10 -15 15 -49 35 -49 24 0 48 38 28 44 -37 12 -59 13 -63 5z"/>
 <path d="M1938 3238 c-12 -10 -14 -19 -7 -35 11 -29 23 -29 42 1 12 17 13 26 4 35 -14 14 -19 14 -39 -1z"/>
 <path d="M4064 3225 c-4 -9 -2 -21 4 -27 8 -8 7 -19 -3 -39 -9 -17 -11 -30 -5 -34 5 -3 16 8 25 24 8 16 11 32 6 35 -5 4 -7 15 -4 25 6 24 -15 38 -23 16z"/>
 <path d="M1507 3161 c-9 -24 -17 -31 -38 -31 -20 0 -33 -10 -52 -39 -25 -38 -26 -61 -1 -40 9 7 18 6 33 -2 17 -11 23 -10 40 5 12 11 21 27 21 37 0 10 4 20 9 23 12 8 19 66 9 72 -5 3 -14 -8 -21 -25z"/>
 <path d="M3755 3130 c-4 -6 -15 -8 -25 -5 -10 3 -39 -6 -64 -19 -38 -20 -52 -23 -73 -15 -42 16 -53 -7 -12 -24 39 -16 61 -39 57 -58 -5 -23 33 -23 39 0 3 12 11 21 19 21 7 0 18 9 24 20 9 16 8 22 -5 26 -22 9 -19 27 4 19 22 -7 70 28 53 39 -6 3 -14 2 -17 -4z"/>
 <path d="M259 3104 c-21 -22 -23 -22 -57 -9 -45 19 -102 19 -130 -1 -29 -20 -30 -74 -2 -99 25 -23 25 -30 -1 -56 l-21 -21 -24 23 -24 22 0 -30 c0 -26 5 -31 42 -42 24 -7 56 -20 71 -28 22 -11 35 -12 55 -4 15 5 52 12 82 13 l55 4 -2 37 c-1 21 4 72 12 114 8 41 12 79 10 83 -12 19 -45 16 -66 -6z m-25 -174 c4 -5 6 -12 3 -17 -6 -10 -127 -10 -127 0 0 4 0 14 0 23 0 13 9 14 58 9 31 -4 61 -11 66 -15z"/>
 <path d="M1777 3034 c-3 -3 -3 -12 -1 -18 3 -7 -2 -18 -10 -25 -14 -12 -12 -17 10 -47 15 -19 24 -35 20 -35 -3 -1 -15 -2 -26 -3 -11 0 -20 -5 -20 -11 0 -13 22 -14 39 -1 8 6 16 10 19 8 2 -2 13 9 23 24 20 32 12 59 -22 69 -12 4 -18 12 -15 21 5 14 -7 28 -17 18z"/>
 <path d="M1715 3011 c-3 -6 -3 -11 1 -11 4 0 -1 -9 -11 -20 -11 -12 -15 -26 -11 -37 7 -16 9 -16 25 6 17 22 21 54 9 66 -3 4 -9 2 -13 -4z"/>
 <path d="M1540 2939 c-42 -20 -46 -43 -8 -47 18 -2 40 6 65 25 20 15 38 27 40 26 2 -2 3 -1 3 2 0 3 0 8 0 12 0 4 -5 2 -11 -4 -7 -7 -20 -8 -33 -4 -13 5 -34 1 -56 -10z"/>
 <path d="M1925 2914 c-12 -19 -15 -32 -8 -42 13 -21 27 -16 28 11 0 17 7 23 33 27 45 7 45 24 1 28 -30 3 -39 -2 -54 -24z"/>
 <path d="M2175 2889 c-4 -6 -12 -8 -19 -6 -6 2 -22 0 -36 -6 -14 -5 -41 -10 -60 -11 -19 -1 -35 -5 -35 -11 0 -9 82 -12 115 -4 10 3 15 -4 15 -21 0 -14 -6 -25 -12 -25 -7 0 -13 -3 -13 -7 0 -8 4 -9 15 -7 3 1 10 2 15 3 6 0 19 16 30 34 16 25 18 37 10 52 -12 23 -16 24 -25 9z"/>
 <path d="M168 2839 c-10 -5 -18 -21 -18 -34 0 -33 -29 -48 -61 -30 -75 43 -89 41 -89 -11 0 -30 2 -34 18 -25 21 11 136 5 173 -10 17 -6 34 -7 51 0 17 6 29 6 36 -1 12 -12 35 -1 26 13 -3 6 -12 8 -20 5 -15 -6 -44 30 -44 55 0 17 -30 49 -46 49 -5 0 -17 -5 -26 -11z"/>
 <path d="M2019 2816 c-10 -46 5 -67 44 -63 40 4 59 15 51 28 -4 6 -11 6 -19 -1 -9 -8 -15 -8 -20 0 -3 5 -15 10 -26 10 -11 0 -18 4 -14 9 3 5 1 12 -5 16 -5 3 -11 4 -11 1z"/>
 <path d="M2135 2617 c-8 -19 18 -65 41 -74 9 -3 23 1 31 10 14 13 14 19 3 32 -7 8 -19 14 -26 13 -7 -2 -20 6 -28 17 -14 19 -15 19 -21 2z"/>
 <path d="M1370 2575 c-13 -15 -10 -52 4 -47 10 4 26 -17 26 -35 0 -7 -6 -12 -12 -10 -7 1 -11 -5 -9 -13 12 -39 13 -102 2 -96 -19 12 -32 -3 -20 -25 13 -25 55 -23 86 4 29 26 55 18 75 -22 9 -19 23 -38 30 -42 7 -5 13 -15 13 -24 0 -26 18 -21 21 7 1 16 -7 39 -22 59 -29 39 -30 57 -6 99 16 30 16 32 -2 45 -10 8 -24 25 -30 37 -6 13 -29 32 -51 42 -22 11 -48 23 -57 28 -25 11 -34 10 -48 -7z m107 -90 c22 -11 30 -21 26 -34 -4 -14 -11 -17 -35 -12 -39 8 -60 37 -38 51 8 5 15 10 16 10 0 0 15 -7 31 -15z"/>
 <path d="M1186 2393 c-4 -5 -12 -8 -17 -8 -5 0 -19 -13 -32 -28 -16 -21 -31 -28 -57 -28 -40 0 -60 3 -77 14 -6 4 -14 3 -18 -3 -3 -5 -4 -11 -1 -11 3 -1 9 -2 14 -3 4 -1 16 -6 27 -12 28 -15 82 -16 105 -4 11 6 26 23 34 39 12 23 20 27 41 24 16 -4 27 -14 31 -28 3 -13 13 -30 22 -39 25 -22 181 -86 187 -76 6 9 -101 70 -122 70 -28 0 -51 20 -67 60 -12 31 -21 40 -39 40 -13 0 -27 -3 -31 -7z"/>
 <path d="M13 2283 c-34 -13 -5 -117 48 -178 56 -63 101 -75 143 -37 11 10 29 22 39 25 41 15 5 48 -55 51 -24 1 -56 9 -73 17 -26 12 -30 21 -33 59 -5 63 -25 81 -69 63z"/>
 <path d="M0 2011 c0 -32 8 -39 26 -21 6 6 24 2 52 -11 50 -25 77 -14 63 24 -7 17 -17 22 -47 24 -22 1 -51 4 -66 8 -26 7 -28 5 -28 -24z"/>
 <path d="M3765 1980 c-10 -16 26 -53 38 -41 7 7 15 4 23 -7 12 -16 13 -16 20 1 4 11 1 24 -7 32 -20 20 -65 29 -74 15z"/>
 <path d="M109 1938 c-11 -46 0 -68 37 -68 13 0 28 -9 33 -19 7 -11 26 -21 48 -24 84 -13 109 -20 139 -43 17 -13 34 -20 38 -17 3 4 6 -12 6 -34 0 -44 31 -83 67 -83 11 0 37 -16 57 -35 21 -19 49 -38 64 -41 15 -4 34 -12 42 -18 8 -7 29 -11 45 -9 61 7 78 5 87 -11 13 -24 30 -9 17 15 -17 32 -55 42 -91 23 -28 -15 -31 -14 -52 5 -12 12 -28 21 -34 21 -15 0 -63 30 -74 45 -4 5 -8 22 -8 36 0 15 -12 37 -31 55 -28 26 -30 33 -25 76 4 36 1 52 -13 70 -18 21 -19 21 -45 5 -14 -10 -26 -21 -26 -26 0 -31 -117 -16 -197 25 -27 13 -54 24 -61 24 -7 0 -11 4 -7 9 3 5 1 12 -5 16 -5 3 -10 5 -11 3z"/>
 <path d="M3746 1892 c-15 -18 -15 -20 4 -37 30 -27 26 -72 -10 -105 -16 -15 -30 -31 -30 -34 0 -4 -11 -23 -25 -44 -14 -22 -24 -50 -23 -65 4 -49 68 -88 68 -42 0 8 9 29 20 47 11 18 20 43 20 56 0 31 31 125 44 134 6 4 18 0 27 -8 9 -8 32 -19 51 -25 22 -5 39 -18 46 -34 6 -13 26 -32 44 -41 18 -9 41 -28 51 -41 18 -23 20 -23 38 -7 11 9 19 22 19 28 1 19 75 46 128 46 28 0 53 4 56 9 9 14 45 1 51 -20 4 -11 -7 -45 -24 -81 -17 -35 -31 -68 -31 -75 0 -7 -13 -22 -30 -34 -31 -23 -32 -46 -1 -30 10 6 27 8 39 5 17 -5 24 2 41 38 19 40 19 44 3 56 -16 12 -16 14 0 23 10 6 27 30 38 54 28 62 11 109 -51 141 -39 21 -48 22 -79 11 -19 -7 -45 -18 -57 -25 -12 -7 -32 -12 -45 -12 -13 0 -41 -9 -63 -20 -49 -25 -93 -26 -102 -2 -3 9 -12 24 -19 32 -7 8 -12 19 -11 24 1 5 -11 14 -28 19 -16 6 -48 25 -69 44 -45 38 -66 41 -90 15z"/>
 <path d="M84 1858 c-5 -7 2 -11 17 -10 10 2 21 -47 14 -58 -9 -15 -31 -12 -45 6 -8 8 -22 20 -32 25 -18 10 -19 7 -13 -32 4 -24 11 -51 16 -61 5 -10 7 -18 4 -18 -3 0 -1 -9 5 -20 6 -11 15 -18 21 -15 6 4 6 13 -1 24 -8 15 -3 21 30 34 48 18 60 53 37 101 -14 31 -42 43 -53 24z"/>
 <path d="M4509 1774 l-24 -26 29 -23 c36 -29 46 -24 46 19 0 50 -21 62 -51 30z"/>
 <path d="M1752 1661 c-10 -19 -24 -29 -36 -28 -23 2 -66 -55 -66 -87 0 -32 -56 -94 -110 -121 -60 -30 -64 -37 -46 -73 16 -31 13 -40 -25 -64 -33 -21 -74 -15 -151 22 -32 15 -61 24 -63 19 -5 -8 47 -49 62 -49 5 0 26 -9 48 -20 47 -24 78 -25 95 -5 7 8 20 15 28 15 9 0 35 19 57 43 23 23 54 50 69 61 23 15 27 23 22 48 -4 21 1 40 19 68 14 22 25 43 25 48 0 4 13 15 29 25 16 9 38 34 48 54 22 42 45 52 70 31 9 -7 34 -20 57 -29 37 -15 41 -20 42 -54 1 -46 40 -83 63 -61 18 19 7 47 -38 92 -78 78 -103 94 -151 94 -24 0 -35 -7 -48 -29z"/>
 <path d="M4635 1658 c-39 -14 -65 -37 -65 -58 0 -9 7 -37 16 -63 15 -43 14 -48 -3 -77 -18 -31 -18 -32 2 -46 11 -8 26 -13 35 -12 16 4 16 13 6 107 l-6 53 33 -5 c17 -2 44 0 60 5 24 9 31 7 52 -16 31 -34 35 -33 35 9 0 31 -4 36 -29 41 -16 4 -44 21 -62 40 -18 19 -35 34 -38 33 -4 0 -19 -5 -36 -11z"/>
 <path d="M313 1610 c-18 -10 -39 -33 -47 -49 -18 -33 -44 -55 -33 -28 3 9 2 19 -4 22 -5 4 -7 10 -4 14 2 5 -4 16 -15 26 -11 10 -20 15 -20 10 0 -4 -6 -2 -14 4 -9 8 -16 8 -20 2 -4 -5 -2 -12 4 -16 5 -3 10 -3 10 1 0 4 11 -3 24 -15 18 -17 23 -31 20 -53 -2 -17 -1 -35 2 -39 8 -14 62 32 73 63 5 15 21 33 35 40 22 10 33 7 75 -16 29 -15 52 -22 56 -17 3 6 -12 19 -34 30 -22 12 -42 25 -46 31 -9 15 -26 12 -62 -10z"/>
 <path d="M487 1533 c-3 -5 -7 -23 -8 -41 l-4 -34 51 -3 c61 -4 134 -36 181 -77 10 -9 29 -19 42 -23 14 -4 45 -18 69 -31 25 -13 51 -24 59 -24 7 0 32 -12 56 -27 29 -19 58 -28 96 -30 29 -1 58 -7 65 -12 6 -5 14 -10 18 -10 4 -1 15 -4 24 -8 9 -3 24 -2 33 4 22 13 44 61 37 79 -8 20 -26 8 -26 -16 0 -32 -45 -44 -85 -24 -11 6 -38 12 -60 13 -22 1 -48 4 -57 7 -24 7 -32 40 -18 75 7 16 10 35 7 42 -9 24 -100 64 -137 60 -19 -2 -42 1 -50 6 -13 9 -12 12 4 24 12 8 15 16 9 20 -6 4 -23 -3 -38 -14 -21 -17 -31 -20 -48 -11 -12 6 -50 16 -84 22 -35 7 -68 19 -74 26 -12 15 -55 19 -62 7z"/>
 <path d="M1815 1520 c-12 -19 10 -34 31 -22 12 6 25 7 36 1 19 -10 35 5 17 17 -21 13 -77 15 -84 4z"/>
 <path d="M1142 1498 c-14 -14 -16 -40 -3 -53 5 -6 11 -28 13 -50 4 -48 21 -49 28 -3 5 29 6 31 14 13 5 -11 10 -23 10 -27 1 -5 4 -8 9 -8 6 0 9 4 6 13 0 1 -2 17 -5 35 -4 33 -38 92 -53 92 -4 0 -12 -5 -19 -12z"/>
 <path d="M4351 1487 c-17 -21 23 -55 44 -37 11 9 12 17 4 31 -11 22 -32 25 -48 6z"/>
 <path d="M937 1153 c-4 -3 0 -15 10 -25 15 -17 15 -18 0 -19 -51 -3 -64 -2 -74 4 -6 4 -14 3 -18 -3 -3 -5 -4 -11 -1 -11 3 -1 9 -2 14 -3 4 -1 12 -4 18 -8 6 -4 31 -6 56 -5 26 1 46 0 46 -3 0 -3 0 -7 2 -10 1 -3 2 -21 3 -41 2 -34 0 -36 -20 -28 -29 11 -40 -7 -12 -21 17 -9 24 -8 40 6 20 18 26 59 9 69 -6 4 -8 10 -5 14 2 5 -4 16 -15 26 -11 10 -17 21 -15 25 6 10 -30 42 -38 33z"/>
 <path d="M218 1135 c-4 -4 -4 -13 -2 -20 3 -7 0 -16 -6 -20 -7 -4 -8 -11 -1 -18 5 -7 10 -16 10 -22 1 -5 6 -10 12 -10 12 0 19 -11 37 -56 7 -17 27 -34 59 -48 26 -13 56 -27 66 -32 10 -6 26 -8 35 -5 21 7 36 -3 45 -27 4 -10 11 -15 17 -12 19 12 10 51 -19 83 -23 24 -39 32 -68 33 -38 2 -68 4 -90 7 -12 2 -63 87 -63 106 0 18 -24 48 -32 41z"/>
 <path d="M774 1085 c-8 -19 -1 -46 11 -46 6 0 12 8 15 18 3 10 11 18 18 18 6 0 13 4 15 10 3 15 -53 16 -59 0z"/>
 <path d="M2384 1038 c-4 -6 4 -21 20 -33 18 -14 24 -25 17 -29 -7 -5 -8 -13 -1 -25 5 -10 7 -21 3 -24 -16 -17 30 -17 48 -1 31 28 21 63 -26 96 -45 31 -51 33 -61 16z"/>
 <path d="M4330 1041 c-49 -6 -60 -24 -20 -29 13 -2 33 -10 44 -18 11 -8 28 -14 38 -14 23 0 72 -73 64 -97 -3 -10 -19 -25 -34 -34 -19 -11 -31 -28 -36 -50 -3 -18 -17 -45 -30 -59 -13 -14 -26 -33 -28 -43 -3 -16 -5 -16 -22 -4 -17 12 -17 17 -5 50 18 50 1 70 -33 39 -13 -11 -36 -32 -53 -46 l-30 -24 23 -24 c12 -13 22 -27 22 -31 0 -13 -48 -7 -53 7 -3 7 -17 16 -32 18 -22 5 -28 0 -40 -29 -8 -19 -35 -54 -60 -78 -25 -24 -45 -51 -45 -58 0 -8 -6 -20 -14 -26 -7 -6 -11 -22 -8 -36 5 -29 -3 -30 -59 -14 -21 7 -46 8 -56 4 -10 -5 -31 -9 -48 -11 -16 -1 -51 -5 -77 -9 -44 -7 -48 -6 -76 24 -31 35 -54 94 -45 117 3 8 -4 25 -16 38 -12 12 -19 25 -16 27 7 7 -69 80 -86 82 -8 2 -19 6 -26 10 -6 4 -14 3 -18 -2 -3 -6 -15 -7 -28 -2 -12 4 -27 6 -33 4 -6 -2 -17 3 -24 12 -7 8 -21 15 -31 15 -10 0 -21 5 -24 11 -4 5 -18 14 -31 19 -37 14 -50 52 -34 100 12 35 11 42 -6 67 -10 15 -20 33 -20 38 -1 6 -2 14 -3 18 0 5 -11 1 -23 -7 -16 -12 -22 -27 -23 -56 -1 -29 -7 -45 -22 -55 -17 -12 -20 -24 -19 -67 l1 -52 46 3 c26 1 50 -2 53 -8 4 -6 31 -26 60 -46 57 -37 106 -45 141 -22 28 19 38 16 85 -22 29 -23 39 -36 31 -44 -7 -7 -16 -6 -29 6 -37 34 -93 8 -84 -38 5 -29 58 -65 95 -65 15 0 32 -7 39 -16 45 -55 110 -114 133 -120 15 -4 45 -1 68 7 23 7 47 14 52 15 6 1 15 3 20 4 36 8 124 -15 141 -38 26 -36 94 38 94 102 0 15 11 33 28 46 15 12 29 31 32 41 3 11 17 28 32 37 24 14 32 14 63 3 33 -11 39 -10 80 13 49 29 65 50 58 77 -3 10 4 30 16 45 12 15 21 33 21 41 0 8 16 29 36 47 55 50 68 151 26 199 -16 18 -53 20 -142 8z"/>
 <path d="M4586 1033 c-3 -3 -3 -17 0 -30 5 -17 1 -28 -11 -37 -13 -9 -15 -15 -6 -20 14 -9 75 50 66 64 -9 15 -41 30 -49 23z"/>
 <path d="M1438 913 c-22 -27 -49 -35 -64 -20 -13 12 -51 8 -64 -8 -13 -16 -9 -18 32 -15 14 1 29 -3 33 -9 13 -22 53 -11 75 19 28 40 62 40 92 -1 24 -32 71 -63 81 -53 3 3 -19 30 -49 60 -64 64 -98 71 -136 27z"/>
 <path d="M2356 902 c-11 -18 -9 -78 3 -99 14 -27 24 -29 41 -8 7 8 9 15 5 15 -5 0 0 9 10 20 17 18 17 20 1 26 -10 4 -22 17 -27 30 -9 24 -23 31 -33 16z"/>
 <path d="M4512 863 c-6 -10 -9 -30 -7 -45 2 -16 -1 -30 -6 -34 -5 -3 -7 -10 -3 -15 3 -5 10 -7 15 -3 5 3 7 9 4 14 -3 5 -1 11 5 15 6 4 8 10 5 15 -3 5 -1 20 5 34 11 30 -4 46 -18 19z"/>
 <path d="M1477 804 c-15 -8 -25 -19 -22 -25 4 -5 14 -5 26 1 11 6 24 8 29 5 9 -6 5 -17 -21 -65 -5 -8 -15 -30 -23 -47 -14 -31 -18 -33 -66 -32 -45 1 -55 -2 -83 -29 -31 -30 -36 -31 -87 -25 -51 6 -59 11 -112 66 -32 34 -61 56 -68 52 -8 -5 -8 -10 0 -20 7 -8 7 -16 2 -19 -6 -3 -13 1 -16 10 -3 8 -10 12 -16 9 -6 -4 -7 -12 -3 -18 4 -7 8 -30 8 -52 l0 -40 65 -6 c77 -6 94 -13 115 -45 8 -13 24 -24 35 -24 22 0 99 24 147 46 17 8 37 14 45 14 20 0 172 126 188 155 13 25 12 28 -10 46 -23 18 -95 60 -102 59 -2 -1 -16 -8 -31 -16z"/>
 <path d="M1644 809 c-3 -5 15 -21 40 -36 41 -26 43 -29 30 -47 -29 -41 -4 -129 44 -155 11 -6 22 -24 25 -41 16 -76 76 -167 128 -194 12 -6 23 -18 25 -27 6 -45 19 -61 67 -84 44 -22 55 -24 86 -14 57 18 65 24 80 57 12 26 20 32 46 32 18 0 44 9 58 20 l26 20 -4 -27 c-2 -16 -4 -29 -6 -30 -1 -2 -2 -9 -3 -15 0 -7 -18 -21 -39 -31 -44 -20 -42 -41 3 -26 28 10 47 26 49 42 1 4 2 9 2 12 1 3 3 10 4 15 1 6 4 11 5 13 1 1 3 16 5 34 2 24 -4 38 -26 59 -25 24 -27 29 -14 47 18 25 3 47 -25 40 -46 -12 -60 46 -24 104 18 29 2 38 -22 12 -12 -14 -18 -36 -18 -72 -1 -35 -7 -57 -18 -69 -15 -15 -17 -29 -12 -76 7 -59 -5 -102 -27 -102 -6 0 -24 -9 -40 -21 -32 -22 -46 -18 -77 24 -7 9 -26 24 -41 31 -23 13 -27 20 -23 46 4 26 -1 36 -28 58 -31 26 -31 28 -16 57 9 17 16 36 16 42 0 13 -42 45 -56 42 -41 -7 -61 4 -87 47 -28 47 -30 74 -4 74 8 0 20 -6 26 -14 6 -7 29 -13 53 -12 58 1 63 27 11 56 -21 11 -51 29 -68 39 -61 39 -146 78 -151 70z"/>
 <path d="M481 781 c-9 -15 -6 -22 14 -35 31 -20 41 -5 19 29 -20 30 -21 30 -33 6z"/>
 <path d="M2347 708 c-19 -35 -33 -66 -31 -70 8 -13 44 12 44 30 0 10 6 26 13 37 20 30 27 54 17 60 -4 3 -24 -23 -43 -57z"/>
 <path d="M602 724 c-12 -8 -32 -14 -45 -12 -32 4 -24 -28 18 -72 28 -29 33 -41 31 -73 -2 -28 1 -40 14 -47 23 -12 31 -3 20 26 -6 14 -6 26 0 29 6 4 7 17 4 29 -4 16 0 25 10 29 19 8 22 77 4 95 -16 16 -29 15 -56 -4z"/>
 <path d="M1034 549 c-7 -13 29 -65 44 -62 10 2 -1 -63 -13 -75 -4 -4 -33 -6 -66 -5 -42 2 -61 -2 -66 -12 -7 -13 -12 -13 -36 0 -25 13 -51 19 -70 16 -19 -3 28 -50 56 -57 18 -3 44 -17 59 -29 34 -29 90 -40 120 -24 13 7 42 28 65 48 51 42 55 78 11 93 -16 6 -28 15 -28 22 0 7 -11 23 -25 36 -14 13 -25 29 -25 36 0 18 -17 27 -26 13z"/>
 <path d="M655 501 c-5 -9 17 -26 40 -31 6 -1 27 -11 48 -21 20 -11 37 -17 37 -13 0 4 6 1 14 -5 9 -8 16 -8 20 -2 4 5 2 12 -4 16 -5 3 -10 3 -10 -1 0 -4 -8 0 -17 8 -15 13 -51 29 -73 33 -3 0 -15 6 -27 13 -13 7 -24 8 -28 3z"/>
 <path d="M3225 501 c-5 -9 19 -33 52 -50 39 -20 33 5 -7 32 -22 14 -42 22 -45 18z"/>
 <path d="M1348 397 c-32 -15 -67 -42 -79 -59 -22 -30 -22 -31 -4 -44 10 -8 24 -14 31 -14 6 0 23 -9 38 -21 22 -17 34 -20 76 -14 41 6 55 13 75 39 14 18 25 39 25 46 0 8 10 24 22 37 36 38 16 57 -63 58 -51 1 -75 -5 -121 -28z"/>
 <path d="M3905 301 c-3 -6 -10 -9 -14 -6 -5 2 -18 -6 -30 -19 -13 -14 -30 -22 -41 -19 -10 3 -21 0 -25 -6 -10 -16 23 -25 40 -11 8 7 15 9 15 4 0 -4 13 5 29 20 16 15 32 28 35 27 7 -1 9 9 3 15 -3 3 -8 0 -12 -5z"/>
 <path d="M1186 201 c-4 -5 -2 -12 4 -16 6 -4 8 -11 5 -16 -10 -15 43 -35 57 -21 11 11 8 13 -40 28 -7 2 -11 8 -7 13 3 5 1 12 -4 15 -5 4 -12 2 -15 -3z"/>
 <path d="M1936 182 c-6 -9 41 -58 61 -64 20 -6 9 16 -24 45 -17 15 -34 24 -37 19z"/>
 </g>
<g id="layer3" fill="#768fb9" stroke="none">
 <path d="M3500 4781 c21 -40 150 -39 158 2 3 15 -6 17 -83 17 -82 0 -85 -1 -75 -19z"/>
 <path d="M0 4654 c0 -35 4 -64 9 -64 6 0 24 -13 40 -28 24 -22 28 -31 19 -40 -7 -7 -22 -12 -35 -12 -44 0 -46 -106 -3 -127 14 -7 49 -32 78 -56 64 -53 236 -125 332 -139 36 -6 83 -16 105 -24 23 -8 51 -14 63 -14 26 0 67 -24 99 -57 16 -17 34 -23 65 -23 39 0 45 -4 58 -33 16 -35 56 -47 94 -29 38 18 53 21 65 9 6 -6 11 -14 11 -19 0 -16 -45 -48 -68 -48 -50 0 -130 -63 -120 -96 1 -5 -3 -19 -10 -31 -17 -31 2 -38 22 -8 9 14 14 25 11 25 -3 0 4 10 15 23 11 12 27 30 35 40 9 10 29 17 48 17 25 0 42 10 75 43 47 48 51 63 22 100 -11 14 -20 30 -20 35 0 5 -12 17 -26 27 -22 14 -33 15 -63 6 -54 -16 -76 -17 -92 -5 -27 22 -86 52 -116 58 -24 6 -34 3 -41 -10 -9 -16 -13 -15 -40 14 -21 22 -39 32 -60 32 -16 0 -43 5 -61 11 -25 9 -31 17 -31 39 0 15 10 40 21 54 20 25 20 29 6 44 -9 9 -30 17 -46 18 -16 1 -44 8 -64 15 -31 11 -37 10 -62 -9 -38 -30 -54 -28 -71 13 -19 45 -52 55 -94 25 -25 -18 -31 -19 -36 -6 -3 8 0 24 6 36 7 12 8 38 4 66 -4 27 -2 56 6 74 17 41 -1 64 -44 56 -26 -5 -38 0 -68 29 l-38 34 0 -65z"/>
 <path d="M2566 4703 c-3 -3 -6 -27 -6 -53 0 -44 -2 -48 -39 -68 -27 -16 -48 -21 -66 -16 -21 5 -34 -2 -82 -50 l-58 -57 4 -70 3 -69 -47 -20 c-63 -27 -81 -25 -122 10 -18 17 -40 30 -49 30 -35 0 -96 42 -110 75 -13 32 -40 53 -98 75 -17 6 -33 4 -57 -9 -26 -14 -52 -17 -110 -15 -42 2 -88 8 -103 14 -17 6 -35 6 -53 -1 -22 -8 -30 -6 -53 16 -14 14 -31 25 -36 25 -6 0 -21 11 -34 25 -32 34 -112 85 -134 85 -50 0 -94 -71 -82 -131 3 -17 27 -55 53 -85 26 -29 48 -62 49 -71 2 -10 14 -26 28 -36 14 -10 30 -35 36 -56 13 -48 51 -106 70 -106 8 0 21 -4 28 -8 6 -5 12 -5 12 -1 0 3 6 1 14 -5 10 -8 16 -9 21 -1 6 10 5 11 -17 14 -6 0 -18 13 -27 27 -19 33 -84 113 -125 155 -26 27 -30 38 -28 75 7 100 26 105 110 27 l64 -59 108 5 c100 5 109 3 115 -14 10 -32 33 -44 60 -32 14 7 25 19 25 28 0 16 1 16 18 1 12 -11 22 -13 32 -7 8 5 22 8 30 5 8 -2 40 -9 71 -15 40 -8 69 -22 104 -51 54 -44 111 -72 128 -62 20 12 70 11 104 -3 19 -8 38 -12 43 -9 6 4 16 3 22 -2 18 -10 71 -4 86 11 11 11 9 21 -9 57 -13 24 -32 56 -43 71 -19 27 -19 29 -2 67 21 46 49 58 77 30 24 -24 41 -24 64 1 24 26 97 24 138 -3 35 -24 71 -19 75 10 4 30 -39 57 -77 50 -32 -7 -47 6 -75 61 -14 28 -15 33 -2 38 8 3 25 0 37 -7 20 -10 26 -8 46 16 23 26 27 27 86 21 34 -4 83 -14 108 -22 42 -13 48 -19 54 -52 4 -20 16 -53 28 -72 23 -37 24 -50 4 -89 -10 -21 -17 -23 -60 -18 -42 4 -50 1 -68 -21 -20 -26 -20 -26 0 -45 25 -25 86 -36 129 -23 30 9 36 7 51 -12 l16 -22 35 28 c19 16 52 36 73 46 47 22 53 36 33 77 -13 26 -13 29 -1 19 8 -7 23 -10 34 -7 10 2 26 0 36 -5 9 -6 47 -12 83 -15 72 -4 96 -17 89 -44 -7 -27 14 -49 48 -51 17 -1 40 -7 52 -14 19 -9 20 -14 10 -26 -6 -9 -27 -20 -45 -26 -31 -11 -36 -9 -67 22 -19 19 -44 37 -56 41 -31 10 -62 -24 -63 -72 -2 -46 9 -63 39 -63 31 0 98 -29 108 -47 10 -16 129 -73 154 -73 10 0 33 -15 53 -34 19 -18 58 -46 85 -61 48 -26 52 -27 100 -15 28 7 61 21 74 31 31 25 155 27 189 4 20 -15 24 -14 52 6 29 22 30 22 71 4 63 -29 109 -78 109 -117 0 -19 10 -45 23 -60 18 -23 32 -29 83 -34 40 -4 64 -2 69 5 3 6 9 46 12 89 3 42 9 79 14 80 20 8 47 80 52 140 7 82 19 96 75 88 38 -5 49 -2 74 19 16 14 36 25 44 25 11 0 14 17 14 80 l0 80 -32 0 c-48 0 -107 -23 -143 -56 -18 -16 -36 -31 -41 -34 -5 -2 -33 -30 -62 -61 -29 -31 -64 -60 -79 -64 -15 -3 -47 -25 -71 -47 -30 -27 -49 -38 -60 -33 -9 4 -61 8 -115 10 -96 3 -98 3 -107 -21 -10 -25 -27 -29 -120 -27 -105 3 -161 13 -203 37 -24 14 -58 26 -74 26 -18 0 -33 6 -37 15 -3 8 -14 15 -25 15 -11 0 -23 4 -26 10 -3 5 -23 14 -43 19 -20 6 -42 19 -49 30 -11 17 -7 20 33 36 65 25 72 45 39 111 -24 48 -30 53 -54 48 -28 -6 -46 15 -53 61 -2 11 -19 28 -39 38 -37 17 -54 17 -134 -8 -13 -4 -38 6 -74 30 -45 30 -59 34 -80 27 -36 -12 -49 -6 -65 32 -11 28 -23 36 -80 54 -37 12 -85 34 -107 49 -32 21 -51 26 -93 25 -29 -1 -64 -5 -77 -10 -14 -6 -34 -6 -49 0 -33 12 -105 19 -114 11z"/>
 <path d="M4053 4672 c-15 -10 -63 -98 -63 -117 0 -7 16 -32 35 -55 19 -23 35 -48 35 -55 0 -7 38 -52 84 -100 91 -96 116 -105 116 -41 0 26 -9 44 -39 76 -27 30 -37 47 -34 64 3 13 0 27 -6 30 -14 9 -14 63 -1 71 19 12 10 52 -15 69 -13 9 -29 16 -36 16 -6 0 -20 11 -31 25 -21 27 -26 29 -45 17z"/>
 <path d="M1672 4604 c-28 -19 -28 -32 1 -43 27 -11 49 5 45 32 -4 27 -19 31 -46 11z"/>
 <path d="M4344 4354 c-16 -24 -16 -26 3 -45 27 -28 90 -35 114 -13 15 13 16 20 8 31 -10 11 -92 53 -105 53 -2 0 -11 -12 -20 -26z"/>
 <path d="M1555 4121 c-9 -15 13 -23 58 -20 24 2 48 0 54 -4 6 -4 14 -3 18 3 6 10 5 11 -14 14 -5 0 -13 4 -17 9 -11 10 -92 9 -99 -2z"/>
 <path d="M1705 4101 c-7 -13 12 -24 27 -15 6 4 8 3 5 -3 -4 -6 11 -27 32 -46 42 -38 105 -57 123 -39 6 6 16 8 23 5 21 -7 79 27 67 39 -8 8 -15 8 -24 1 -7 -6 -24 -13 -38 -15 -19 -2 -28 3 -38 25 -16 32 -22 33 -45 7 -24 -28 -38 -25 -77 15 -35 37 -45 41 -55 26z"/>
 <path d="M13 4033 c-16 -6 -17 -49 -2 -58 6 -4 9 -41 8 -93 -2 -75 1 -92 20 -124 36 -59 45 -33 11 27 -17 29 -26 56 -21 59 30 19 79 -52 73 -104 -6 -52 -5 -80 3 -127 6 -36 5 -43 -8 -43 -25 0 -30 -17 -14 -47 9 -16 22 -49 31 -74 20 -55 61 -98 77 -82 8 8 5 14 -11 23 -27 15 -50 68 -50 118 0 27 8 47 30 72 34 41 39 89 12 113 -10 10 -24 17 -30 17 -6 0 -9 7 -6 15 4 8 0 25 -9 38 -14 22 -9 58 12 71 5 3 22 -13 38 -36 24 -36 35 -43 67 -46 32 -3 40 -8 52 -37 8 -19 14 -52 14 -74 0 -32 8 -49 46 -93 25 -29 54 -74 65 -100 12 -25 31 -55 43 -67 l22 -21 33 34 c32 33 35 56 6 56 -32 0 -55 42 -55 98 0 50 2 54 20 49 15 -4 27 4 45 27 34 45 32 63 -15 121 -22 28 -51 73 -65 102 -13 28 -29 54 -34 58 -16 10 6 45 28 45 13 0 27 -19 47 -62 15 -35 28 -66 29 -71 1 -24 90 -56 90 -32 0 6 -4 9 -8 7 -14 -4 -78 39 -72 49 9 13 -46 119 -68 131 -14 7 -30 5 -59 -8 -34 -15 -44 -16 -71 -5 -18 7 -45 16 -61 18 -35 7 -132 -15 -147 -33 -14 -17 -39 -6 -39 18 0 52 -38 87 -77 71z"/>
 <path d="M2047 3954 c-3 -3 8 -34 24 -69 15 -34 27 -75 26 -91 -3 -39 25 -39 30 -1 2 17 -8 52 -28 93 -33 66 -42 78 -52 68z"/>
 <path d="M1135 3928 c-11 -7 -36 -12 -55 -13 -30 0 -35 -3 -35 -24 0 -20 7 -27 35 -34 19 -5 44 -17 55 -27 29 -26 104 -62 115 -55 17 10 11 51 -10 70 -11 10 -20 26 -20 36 0 16 -44 59 -59 59 -3 0 -15 -6 -26 -12z"/>
 <path d="M3133 3894 l-29 -37 -35 16 c-88 39 -123 29 -133 -39 -5 -37 -2 -51 11 -67 32 -35 51 -39 88 -21 29 14 40 14 64 4 17 -6 35 -9 40 -5 6 3 23 -7 39 -24 39 -42 100 -65 138 -51 16 6 36 20 45 32 16 20 17 20 50 4 33 -16 35 -16 52 5 37 46 10 89 -44 70 -45 -16 -46 -15 -69 29 -20 40 -63 70 -98 70 -10 0 -29 11 -42 25 -31 33 -43 32 -77 -11z"/>
 <path d="M2398 3890 c-20 -11 -47 -33 -60 -51 -12 -17 -33 -41 -46 -54 -29 -30 -23 -33 86 -50 48 -7 118 -19 156 -26 62 -12 70 -11 81 4 25 34 88 7 90 -38 0 -5 7 -10 15 -10 8 0 15 5 15 10 2 24 17 55 29 55 7 0 21 -7 32 -15 19 -14 18 -15 -6 -34 -16 -13 -21 -23 -15 -29 16 -14 126 -53 135 -47 16 10 -40 97 -91 140 -39 33 -56 42 -68 35 -10 -5 -45 -12 -79 -16 -57 -6 -65 -4 -87 16 -18 17 -23 29 -19 49 5 23 0 31 -35 54 -48 32 -82 33 -133 7z m62 -49 c0 -47 -20 -71 -61 -71 -22 0 -32 7 -41 25 -13 29 1 51 47 71 48 21 55 18 55 -25z"/>
 <path d="M1855 3810 c-22 -23 -25 -31 -13 -35 24 -10 218 -1 221 10 2 11 -76 38 -139 48 -36 6 -44 3 -69 -23z"/>
 <path d="M3553 3681 c-59 -61 -63 -68 -63 -107 0 -33 -6 -44 -40 -73 -22 -19 -40 -39 -40 -46 0 -7 -9 -24 -20 -38 -21 -26 -26 -62 -11 -71 5 -3 12 -18 16 -33 3 -16 20 -50 37 -76 17 -26 41 -73 54 -105 21 -52 25 -57 51 -54 16 2 41 -1 55 -7 22 -8 36 -5 74 15 25 13 54 22 63 19 20 -6 47 20 53 50 3 15 10 19 33 17 81 -6 93 -5 124 17 44 32 39 62 -13 79 -70 23 -83 46 -44 81 18 17 30 19 79 14 54 -5 59 -4 83 23 32 35 43 46 103 102 43 40 45 45 30 60 -13 13 -20 14 -29 4 -18 -18 -41 -15 -83 14 -35 23 -44 25 -94 18 -73 -10 -114 -6 -167 16 -43 19 -67 13 -40 -9 11 -9 12 -19 3 -49 -6 -20 -17 -44 -24 -53 -7 -8 -13 -27 -13 -41 0 -36 -44 -131 -68 -145 -11 -6 -26 -10 -33 -9 -95 21 -98 24 -78 93 12 46 12 47 -18 72 -27 23 -29 29 -21 59 5 17 15 32 22 32 21 0 76 68 83 101 3 16 7 29 8 29 1 0 19 -7 38 -15 45 -19 59 -2 17 20 -57 29 -95 28 -127 -4z"/>
 <path d="M2955 3590 c-7 -12 62 -43 92 -41 12 0 25 -4 28 -9 4 -6 21 -8 42 -4 39 7 60 -10 41 -33 -7 -9 -7 -17 2 -28 14 -17 22 -13 26 13 2 9 4 26 6 36 4 26 -38 48 -75 40 -16 -3 -34 -1 -42 6 -8 7 -21 10 -30 7 -8 -4 -27 0 -42 8 -33 18 -40 18 -48 5z"/>
 <path d="M4583 3469 c-23 -16 -45 -30 -48 -29 -3 0 -5 -2 -5 -5 0 -4 6 -6 13 -4 1 0 10 2 19 4 27 5 79 45 73 56 -8 11 -3 13 -52 -22z"/>
 <path d="M4429 3438 c-8 -15 -8 -23 0 -31 9 -9 13 -6 17 10 5 18 10 20 30 13 25 -10 43 3 23 16 -26 16 -59 12 -70 -8z"/>
 <path d="M217 3374 c-3 -4 6 -22 20 -41 20 -26 32 -33 49 -29 25 7 47 -14 38 -37 -3 -9 2 -20 14 -26 22 -11 35 -4 25 13 -4 6 -8 16 -9 21 -4 26 -50 88 -71 96 -28 10 -57 12 -66 3z"/>
 <path d="M4420 3365 c-7 -8 -9 -15 -4 -15 4 0 -3 -11 -15 -24 -13 -14 -29 -22 -36 -20 -16 7 -29 -12 -15 -21 6 -4 17 -1 25 5 8 7 15 9 15 5 0 -5 9 0 20 10 11 10 18 20 15 23 -3 3 2 13 11 23 9 10 11 20 6 23 -5 3 -15 -1 -22 -9z"/>
 <path d="M4072 3257 c-7 -8 -8 -26 -2 -50 7 -31 4 -43 -16 -72 -24 -36 -18 -57 8 -27 27 31 35 56 34 104 -2 53 -8 65 -24 45z"/>
 <path d="M1966 3227 c-12 -9 -17 -23 -14 -47 4 -41 22 -43 26 -3 2 15 10 32 18 36 8 5 12 12 9 18 -8 12 -18 11 -39 -4z"/>
 <path d="M332 3205 c-19 -6 -37 -16 -40 -22 -11 -17 -135 -23 -157 -7 -24 18 -55 17 -78 0 -10 -8 -27 -12 -37 -9 -19 5 -20 0 -20 -106 0 -86 4 -117 16 -136 19 -30 30 -31 58 -8 12 10 18 14 13 9 -4 -5 0 -17 8 -26 11 -12 30 -16 81 -14 76 2 93 12 77 47 -10 20 -21 25 -74 31 -76 7 -109 33 -109 82 0 20 6 34 16 38 28 11 80 6 118 -9 35 -15 37 -15 59 9 23 25 47 23 44 -4 -1 -8 3 -16 8 -16 6 -1 19 26 31 61 11 34 24 67 28 73 10 17 -6 19 -42 7z"/>
 <path d="M2025 3210 c-8 -12 73 -110 91 -110 16 0 27 17 19 30 -4 7 -13 6 -27 -1 -11 -6 -18 -7 -15 -2 5 9 -48 93 -58 93 -2 0 -7 -5 -10 -10z"/>
 <path d="M1479 3160 c-36 -31 -41 -40 -27 -45 35 -14 60 -1 73 38 7 20 10 39 6 42 -4 2 -27 -14 -52 -35z"/>
 <path d="M1879 3060 c-47 -31 -87 -38 -108 -17 -10 10 -17 6 -37 -17 -27 -30 -27 -44 -1 -60 12 -8 21 -6 35 7 18 17 20 17 43 -2 l23 -19 -32 -30 c-35 -33 -29 -48 11 -33 14 5 27 7 30 4 3 -2 21 -8 41 -13 31 -7 37 -5 51 16 17 27 65 34 65 10 0 -8 -5 -18 -11 -21 -7 -5 -5 -13 5 -24 17 -18 83 -19 128 -2 34 13 52 -1 44 -32 -9 -37 11 -43 29 -8 9 18 11 32 5 36 -5 3 -7 25 -4 49 4 29 2 46 -6 51 -7 4 -51 10 -99 12 -47 2 -90 8 -95 14 -6 5 -21 9 -33 9 -29 0 -83 27 -83 41 0 5 11 14 24 19 28 10 40 26 27 34 -5 3 -28 -8 -52 -24z"/>
 <path d="M3826 2973 c-3 -4 -13 -8 -20 -9 -23 -3 -66 -36 -60 -45 6 -10 13 -7 59 25 17 12 31 20 33 18 1 -1 2 1 3 4 1 10 -7 14 -15 7z"/>
 <path d="M1655 2960 c-7 -11 12 -23 24 -16 4 3 13 -5 19 -19 13 -28 48 -50 57 -35 3 6 -1 13 -10 16 -9 4 -22 18 -29 33 -14 26 -50 39 -61 21z"/>
 <path d="M1583 2928 c-30 -25 -44 -27 -83 -11 -14 6 -29 8 -33 6 -12 -7 9 -26 30 -28 10 0 24 -4 31 -9 6 -4 18 -4 25 1 6 4 14 8 17 8 16 0 62 43 52 49 -6 3 -23 -4 -39 -16z"/>
 <path d="M2120 2793 c-29 -20 -70 -26 -86 -12 -19 16 -29 -10 -11 -28 11 -11 23 -13 44 -8 15 5 30 9 33 9 3 1 18 10 34 22 34 25 20 41 -14 17z"/>
 <path d="M17 2759 c-11 -7 -17 -22 -17 -48 l0 -38 41 39 c22 21 37 43 34 48 -8 13 -35 12 -58 -1z"/>
 <path d="M145 2751 c-3 -6 2 -14 12 -17 10 -3 25 -10 33 -15 8 -5 24 -13 35 -18 31 -13 46 -35 59 -88 10 -39 20 -53 54 -76 45 -31 53 -58 27 -93 -19 -25 -19 -49 1 -80 13 -19 14 -28 5 -37 -6 -6 -11 -19 -11 -28 0 -9 -21 -42 -46 -72 -45 -53 -48 -55 -98 -55 -59 -1 -76 10 -76 48 0 35 -24 56 -86 75 -27 8 -50 15 -51 15 -2 0 -3 -11 -3 -25 0 -22 3 -24 30 -18 30 5 30 5 30 -38 0 -24 7 -53 16 -64 16 -21 82 -45 129 -45 l30 0 -26 -26 c-31 -31 -55 -36 -91 -18 -26 13 -78 72 -78 88 0 4 -9 19 -20 33 l-20 26 0 -66 c0 -62 11 -90 25 -67 9 15 19 12 48 -10 15 -12 24 -27 20 -35 -6 -17 -39 -20 -48 -5 -9 14 -45 12 -45 -3 0 -15 73 -39 95 -30 20 7 38 -16 25 -32 -15 -19 -16 -67 0 -76 142 -76 274 -98 287 -48 6 22 34 34 44 18 4 -7 5 -35 2 -63 -5 -48 -3 -52 26 -74 23 -17 31 -30 31 -53 0 -23 10 -40 37 -65 20 -19 46 -34 57 -34 11 0 30 -9 42 -21 20 -19 24 -20 51 -5 62 31 109 -20 63 -69 l-22 -23 32 -17 c17 -9 46 -15 63 -13 18 2 51 -6 75 -17 45 -21 44 -17 26 -89 -10 -41 34 -76 94 -76 26 0 56 -6 67 -14 23 -17 76 -11 93 11 15 21 16 55 1 70 -5 5 -13 36 -16 67 -3 31 -10 59 -14 62 -11 6 -12 44 -1 44 12 0 29 -32 37 -70 14 -65 36 -90 111 -125 97 -46 128 -49 174 -20 46 29 51 42 33 78 -8 16 -13 30 -11 32 2 1 19 10 38 20 68 35 130 102 130 142 0 8 7 27 16 44 11 23 20 29 35 24 14 -5 23 1 37 24 22 40 72 43 106 6 13 -14 29 -25 35 -25 18 0 62 -50 78 -88 11 -28 17 -32 28 -22 22 18 -21 90 -102 174 -62 64 -68 67 -102 61 -20 -3 -49 -1 -66 3 -26 8 -36 4 -78 -32 -83 -70 -111 -137 -87 -202 9 -24 7 -31 -17 -56 -60 -64 -182 -98 -218 -61 -20 19 -46 36 -82 52 -20 9 -23 18 -23 65 0 63 -16 84 -50 66 -12 -6 -28 -9 -37 -6 -17 7 -63 -32 -58 -48 2 -6 -16 -25 -40 -43 l-44 -32 -38 44 -38 45 -32 -16 c-28 -14 -34 -14 -62 0 -17 9 -31 23 -31 32 0 8 -7 28 -15 43 -11 22 -24 30 -57 35 -23 4 -45 12 -49 18 -4 6 -26 12 -49 14 -49 5 -79 34 -80 77 0 15 -7 42 -16 59 -15 29 -15 32 5 59 12 15 21 33 21 39 0 6 5 19 12 30 10 16 9 24 -10 49 -12 17 -22 37 -22 44 0 30 -30 86 -50 92 -28 9 -34 45 -15 100 8 26 14 50 11 52 -3 3 -1 15 4 28 6 17 5 27 -6 36 -8 6 -14 28 -14 48 2 74 -7 114 -27 122 -23 8 -68 90 -99 178 l-23 66 -63 1 c-35 1 -73 5 -84 9 -12 4 -25 2 -29 -4z m243 -707 c25 -24 44 -45 41 -45 -35 -10 -67 -5 -84 11 -11 11 -31 21 -43 23 -30 4 -54 38 -40 55 19 23 77 3 126 -44z"/>
 <path d="M2149 2641 c-16 -16 -29 -34 -29 -40 0 -18 54 -70 75 -73 17 -3 20 4 22 56 5 88 -18 107 -68 57z"/>
 <path d="M1355 2590 c-10 -16 5 -31 25 -25 10 3 27 2 37 -3 10 -5 35 -17 56 -26 20 -8 37 -20 37 -26 0 -14 -33 -13 -47 1 -14 14 -63 -13 -63 -34 1 -25 36 -55 72 -60 41 -6 47 -2 50 37 2 23 4 24 17 12 12 -13 12 -18 -2 -40 -23 -34 -21 -58 5 -91 12 -15 24 -43 27 -62 7 -40 25 -48 29 -13 2 15 -8 42 -23 63 -28 43 -32 79 -10 97 27 22 17 54 -32 102 -60 59 -160 97 -178 68z"/>
 <path d="M566 2472 c-8 -13 45 -52 70 -52 10 0 32 -14 50 -31 17 -17 40 -32 50 -34 11 -2 20 -4 22 -5 1 -2 5 -3 10 -4 4 -1 17 -7 29 -14 13 -7 24 -8 28 -3 3 6 -4 15 -15 21 -11 6 -20 8 -20 4 0 -3 -6 -1 -13 5 -8 6 -17 8 -20 5 -3 -4 -34 22 -69 56 -51 51 -65 60 -79 52 -11 -7 -20 -7 -27 0 -6 6 -12 6 -16 0z"/>
 <path d="M1149 2356 c-14 -31 -45 -41 -92 -31 -64 14 -155 7 -149 -11 1 -5 5 -9 10 -9 20 -1 33 -20 29 -41 -5 -30 12 -43 28 -20 14 19 61 35 119 43 55 6 73 18 79 50 8 39 -9 52 -24 19z"/>
 <path d="M1255 2310 c-12 -20 141 -88 159 -70 6 6 -5 16 -30 26 -21 9 -58 24 -81 34 -24 10 -45 15 -48 10z"/>
 <path d="M1467 2233 c-8 -13 47 -73 67 -73 22 0 58 38 50 52 -5 7 -11 6 -19 -5 -18 -24 -43 -21 -69 10 -13 14 -26 22 -29 16z"/>
 <path d="M3625 2164 c-21 -7 -43 -12 -48 -11 -19 4 -27 -59 -21 -168 3 -60 8 -129 11 -153 3 -23 1 -48 -4 -55 -6 -6 -11 -40 -12 -73 l-2 -62 62 -38 c34 -22 65 -38 68 -36 3 1 5 16 3 33 -3 34 19 74 74 140 39 47 44 87 14 114 -11 10 -17 22 -14 26 11 19 45 8 78 -26 20 -19 41 -35 49 -35 15 0 57 -41 57 -57 0 -18 36 -43 61 -43 14 0 42 9 64 20 22 11 51 20 65 20 14 0 34 6 45 14 20 13 69 29 92 31 7 0 12 5 10 10 -1 6 -19 9 -39 7 -22 -1 -50 6 -70 17 -36 21 -112 31 -127 16 -5 -6 -11 -23 -13 -40 l-3 -30 -40 41 c-22 22 -57 53 -78 68 -20 15 -44 40 -52 56 -8 16 -32 37 -53 46 -64 30 -71 40 -65 93 5 42 3 49 -18 62 -40 25 -53 27 -94 13z m100 -346 c28 -13 34 -45 9 -55 -9 -3 -32 0 -51 6 -31 12 -37 11 -58 -9 -17 -16 -28 -19 -40 -13 -15 9 -15 11 -1 22 9 8 16 20 16 27 0 8 10 14 24 14 14 0 28 5 31 10 8 13 38 13 70 -2z"/>
 <path d="M59 1834 c-23 -22 -40 -34 -36 -27 4 6 3 14 -3 18 -5 3 -10 -1 -10 -9 0 -8 5 -18 10 -21 6 -4 8 -11 4 -16 -3 -5 0 -17 8 -26 7 -9 12 -18 11 -20 -2 -1 -1 -3 2 -3 4 0 6 6 4 13 0 1 -2 12 -3 25 -3 26 6 28 24 7 7 -9 24 -14 39 -12 23 4 26 8 25 41 -1 21 -8 45 -17 53 -13 13 -19 11 -58 -23z"/>
 <path d="M4477 1812 c-10 -10 -17 -23 -17 -29 0 -5 23 -36 50 -67 54 -62 63 -97 35 -139 -13 -20 -13 -25 1 -45 8 -12 22 -22 30 -22 19 0 18 -12 -3 -49 -19 -32 -12 -50 21 -55 9 -1 32 -19 51 -40 19 -21 39 -35 45 -31 10 6 -54 80 -70 80 -24 0 -31 24 -15 49 16 24 16 28 0 76 -21 62 -16 77 31 96 37 15 37 15 73 -19 20 -19 48 -37 64 -41 27 -6 27 -6 27 44 l0 51 -35 -5 c-27 -5 -35 -2 -35 9 0 24 -127 122 -180 139 -60 20 -54 20 -73 -2z"/>
 <path d="M4305 1800 c-3 -5 3 -14 14 -19 20 -11 41 -59 37 -84 -1 -8 -8 -22 -15 -31 -7 -9 -10 -16 -5 -16 5 0 -4 -10 -20 -23 -26 -21 -27 -25 -15 -44 11 -18 11 -26 0 -47 -8 -14 -21 -24 -30 -23 -9 1 -17 -2 -18 -8 -3 -15 68 -37 99 -31 15 3 30 1 34 -5 3 -6 0 -9 -7 -7 -8 1 -15 -1 -16 -7 -2 -5 6 -9 17 -9 11 0 20 3 20 7 0 3 12 18 26 32 24 24 24 26 9 55 -8 16 -29 37 -45 45 -39 20 -54 49 -35 65 8 7 14 15 13 18 -1 4 3 17 10 29 21 39 -3 89 -50 106 -10 3 -20 2 -23 -3z"/>
 <path d="M46 1702 c-7 -12 43 -84 54 -77 5 3 -2 24 -17 45 -28 43 -29 44 -37 32z"/>
 <path d="M125 1610 c-7 -12 20 -25 33 -16 5 3 21 -6 35 -20 22 -22 24 -29 15 -54 -8 -25 -6 -34 11 -56 12 -15 21 -37 21 -49 0 -12 9 -30 20 -40 21 -19 27 -69 9 -80 -6 -4 -23 -25 -39 -47 -22 -31 -28 -47 -23 -70 3 -16 1 -39 -6 -51 -8 -17 -8 -32 2 -63 12 -42 33 -55 31 -19 -1 18 0 17 15 -4 51 -72 55 -74 122 -78 88 -5 109 -25 109 -106 0 -60 15 -99 54 -144 22 -26 43 -29 70 -8 11 8 26 15 33 15 19 0 17 -65 -3 -81 -10 -8 -13 -21 -9 -36 6 -26 -6 -30 -25 -8 -7 9 -15 13 -18 10 -3 -3 -10 -1 -16 4 -17 13 -55 20 -61 11 -7 -12 33 -33 50 -26 22 8 48 -30 41 -59 -7 -27 9 -69 23 -61 5 3 6 18 4 33 -5 28 -5 28 11 7 8 -12 30 -27 48 -34 81 -33 136 -60 148 -75 7 -8 18 -15 25 -15 7 0 25 -7 41 -15 24 -12 30 -12 44 0 9 8 35 13 68 12 46 -2 57 2 73 22 26 32 24 58 -7 98 -19 26 -26 48 -29 91 -1 31 -4 63 -6 71 -8 27 17 20 56 -17 22 -20 45 -46 50 -56 8 -13 29 -21 75 -27 63 -9 64 -9 96 22 28 27 39 31 82 31 52 -2 71 10 91 58 6 14 15 32 20 40 10 16 22 47 27 68 4 22 -25 26 -61 9 -24 -12 -46 -14 -87 -8 -29 4 -59 10 -66 15 -13 8 -16 35 -6 60 6 16 45 22 58 9 16 -17 48 -8 67 19 32 45 64 38 138 -32 35 -33 89 -73 120 -88 31 -16 77 -42 102 -58 91 -57 88 -54 47 -52 -21 1 -40 8 -42 15 -9 23 -55 15 -67 -11 -10 -20 -6 -32 25 -80 29 -45 41 -56 63 -57 16 -1 33 -2 38 -4 6 -1 16 -3 23 -3 16 -3 15 -21 -3 -56 -15 -28 -14 -31 15 -61 21 -21 30 -41 30 -63 0 -27 6 -36 35 -53 19 -12 35 -25 35 -29 0 -5 14 -18 30 -30 30 -21 30 -21 58 -3 15 11 39 24 54 31 32 13 44 59 34 124 -5 31 -3 45 11 60 11 13 16 32 14 56 -4 59 12 88 53 96 39 8 78 47 116 118 22 43 23 50 11 80 -24 60 -10 118 29 118 24 0 41 22 30 40 -5 8 -5 19 0 25 6 7 -3 23 -25 44 -31 29 -40 32 -80 29 -25 -3 -45 -8 -45 -14 1 -5 8 -8 15 -6 15 3 38 -31 28 -41 -3 -4 -7 -17 -8 -29 -1 -13 -3 -27 -4 -33 0 -5 -12 -11 -26 -11 -14 -1 -32 -7 -40 -14 -20 -17 -20 -103 0 -120 10 -8 15 -31 15 -68 0 -53 -2 -57 -47 -99 -27 -25 -64 -53 -84 -63 l-36 -19 -34 29 c-19 16 -30 29 -25 30 20 0 -29 40 -49 40 -33 0 -52 26 -37 51 15 23 16 101 1 116 -6 6 -12 19 -14 29 -1 11 -8 18 -14 16 -6 -1 -10 3 -9 9 3 13 -27 20 -48 12 -8 -3 -24 -23 -36 -44 -12 -21 -29 -39 -37 -39 -19 0 -120 93 -123 112 0 7 -2 18 -3 23 -2 6 -3 18 -4 27 0 9 -17 29 -37 45 -28 20 -46 27 -78 26 -32 -2 -37 0 -23 8 9 6 15 14 12 20 -8 12 -62 12 -70 -1 -3 -5 -14 -10 -23 -10 -25 0 -154 -51 -181 -72 -14 -11 -40 -18 -66 -18 -51 0 -72 -20 -77 -74 -2 -33 -9 -42 -38 -59 -58 -31 -80 -57 -80 -93 0 -27 -3 -31 -19 -27 -13 3 -29 -4 -43 -18 -27 -27 -64 -27 -73 0 -13 43 -90 76 -119 52 -24 -20 -46 15 -55 87 -5 39 -12 75 -15 81 -4 5 -7 51 -7 101 -1 87 -3 94 -32 126 -26 31 -28 38 -18 58 7 12 29 30 49 39 32 15 38 15 53 1 9 -8 20 -11 23 -6 7 12 -28 44 -39 35 -4 -5 -5 -3 -2 4 11 17 -67 54 -101 47 -23 -5 -37 1 -65 25 -21 19 -38 27 -42 21 -3 -5 -3 -10 2 -10 11 0 -26 -23 -60 -38 -24 -10 -29 -9 -34 6 -3 9 -17 29 -31 45 -20 21 -23 30 -14 39 7 7 12 20 12 30 0 24 22 23 38 -2 7 -11 18 -20 26 -20 8 0 17 -7 20 -16 9 -24 21 -8 22 29 1 18 5 55 9 82 6 39 4 53 -7 63 -21 17 -131 72 -145 72 -17 0 -73 -49 -73 -64 0 -7 -10 -21 -22 -32 -12 -10 -18 -13 -14 -6 4 6 4 18 -1 25 -4 6 -8 19 -10 27 -2 17 -33 41 -44 35 -4 -3 -10 -1 -14 5 -8 13 -32 13 -40 0z m386 -385 c5 -4 9 -16 9 -27 0 -25 27 -58 47 -58 17 0 17 -1 -9 -49 -13 -26 -29 -41 -40 -41 -11 0 -41 22 -69 49 -40 40 -50 56 -55 95 l-7 46 57 -5 c32 -3 62 -7 67 -10z"/>
 <path d="M1831 1515 c-35 -12 -73 -53 -64 -68 3 -5 15 0 27 11 18 17 55 32 91 37 6 1 17 -4 25 -10 8 -6 21 -11 28 -11 14 1 17 20 2 22 -5 1 -12 3 -15 4 -3 1 -8 3 -12 4 -5 1 -17 6 -28 12 -14 7 -30 7 -54 -1z"/>
 <path d="M775 1210 c-6 -10 9 -19 37 -24 43 -6 49 -32 11 -47 -38 -14 -63 -38 -63 -61 0 -36 29 -74 68 -92 37 -17 42 -17 63 -3 17 12 27 13 42 6 11 -6 29 -12 41 -13 11 -2 31 -6 44 -10 32 -11 39 17 12 54 -12 16 -18 30 -14 30 3 0 2 6 -5 13 -8 10 -7 17 1 25 16 16 35 15 69 -5 21 -12 32 -14 40 -6 17 17 -70 55 -108 47 -24 -5 -37 0 -64 24 -29 26 -109 59 -109 46 0 -3 -10 2 -22 10 -26 19 -35 20 -43 6z m155 -122 c30 1 53 -5 60 -14 7 -8 9 -14 5 -14 -4 0 -3 -6 3 -12 10 -14 -1 -58 -15 -58 -4 0 -21 9 -38 20 -27 18 -31 18 -53 4 -27 -17 -62 -13 -86 12 -16 15 -23 59 -8 51 4 -3 21 1 37 8 17 7 34 10 38 8 5 -3 30 -5 57 -5z"/>
 <path d="M4285 1190 c-3 -5 29 -32 72 -59 60 -39 80 -47 91 -38 11 9 13 7 10 -8 -3 -16 3 -19 42 -19 35 0 49 -5 63 -22 10 -13 26 -26 37 -29 16 -5 18 -10 10 -25 -12 -22 3 -36 17 -17 28 35 18 67 -20 67 -10 0 -16 4 -13 9 3 4 -6 19 -20 32 -20 19 -28 21 -43 12 -15 -9 -24 -7 -50 10 -17 12 -34 30 -37 40 -11 36 -142 74 -159 47z"/>
 <path d="M1265 1123 c-90 -28 -113 -38 -112 -48 2 -11 5 -11 62 5 22 7 65 17 95 24 56 13 70 29 28 33 -13 1 -45 -5 -73 -14z"/>
 <path d="M3216 1038 c-16 -50 -15 -67 6 -93 19 -24 20 -31 10 -59 -7 -18 -12 -40 -12 -48 0 -21 48 -78 65 -78 7 0 18 -7 25 -15 7 -8 20 -15 30 -15 10 0 20 -9 23 -20 3 -12 12 -18 24 -16 24 5 73 8 95 7 22 -1 88 -59 88 -76 0 -7 7 -18 16 -26 8 -7 13 -21 11 -31 -9 -31 15 -87 54 -130 42 -45 27 -43 169 -21 34 6 77 6 134 1 31 -3 37 4 57 71 8 26 27 57 47 75 18 16 42 45 53 63 23 36 40 41 59 17 17 -19 60 -14 74 9 9 15 7 22 -11 34 -13 9 -23 19 -23 23 0 4 19 20 42 35 34 22 40 24 33 9 -15 -35 -10 -56 17 -76 30 -23 48 -17 48 16 0 12 11 33 25 46 14 13 27 38 31 55 4 21 14 37 30 44 13 6 29 22 35 35 9 20 7 31 -16 70 -21 37 -35 48 -67 57 -37 9 -39 11 -22 24 29 21 3 26 -112 23 -80 -2 -98 -6 -96 -17 2 -8 5 -52 7 -98 4 -70 1 -89 -15 -115 -10 -17 -17 -35 -14 -40 3 -4 -4 -27 -15 -51 -11 -23 -22 -54 -25 -69 -8 -34 -65 -90 -132 -128 -73 -42 -72 -43 -183 32 -14 10 -38 18 -54 18 -20 0 -30 7 -36 24 -10 26 -33 38 -55 30 -18 -7 -86 76 -86 106 0 14 -18 38 -47 65 l-47 44 23 43 c13 24 41 61 62 83 30 32 36 44 28 58 -9 15 -29 17 -180 17 -127 0 -171 -3 -173 -12z m1137 -164 c2 -53 0 -59 -19 -62 -19 -3 -22 3 -26 45 -3 31 0 56 9 72 21 34 34 14 36 -55z"/>
 <path d="M2619 996 c-3 -11 -6 -21 -11 -36 -13 -32 -16 -60 -8 -65 12 -7 32 31 28 53 -1 9 1 22 5 29 4 6 3 14 -3 18 -5 3 -11 4 -11 1z"/>
 <path d="M4539 946 c-3 -12 -6 -22 -12 -36 -4 -8 -8 -26 -9 -40 -2 -14 -7 -31 -12 -38 -4 -7 -5 -16 -2 -19 3 -3 -1 -21 -9 -39 -8 -19 -11 -34 -8 -34 3 0 0 -7 -7 -15 -7 -8 -10 -15 -6 -15 4 0 -1 -11 -9 -24 -10 -15 -12 -26 -6 -30 5 -4 15 3 21 14 6 11 8 20 4 20 -3 0 -2 6 4 13 6 6 11 15 11 20 0 4 7 20 15 35 7 15 13 38 12 52 -1 14 4 35 12 47 7 12 12 30 10 40 -1 10 1 23 5 30 4 6 3 14 -3 18 -5 3 -11 4 -11 1z"/>
 <path d="M3036 933 c-4 -5 -12 -8 -17 -8 -5 0 -9 -3 -9 -7 0 -5 0 -11 0 -14 0 -4 6 -2 13 4 7 6 21 6 36 1 19 -8 21 -12 11 -24 -7 -9 -9 -22 -4 -32 4 -10 8 -21 8 -25 1 -5 4 -8 9 -8 7 0 8 4 6 15 -3 17 -2 52 2 60 11 22 3 38 -22 42 -14 2 -29 0 -33 -4z"/>
 <path d="M3081 770 c-24 -47 -13 -61 17 -20 24 32 27 46 13 54 -5 3 -18 -12 -30 -34z"/>
 <path d="M415 761 c-6 -10 1 -15 17 -12 4 0 5 -5 2 -13 -3 -8 -1 -17 5 -20 6 -4 8 -13 5 -20 -3 -8 0 -17 5 -21 6 -3 9 -10 6 -15 -3 -4 2 -13 9 -19 8 -7 17 -8 20 -3 3 6 -1 15 -9 22 -7 6 -12 17 -9 25 3 7 1 16 -5 19 -6 4 -8 12 -5 19 6 17 -32 52 -41 38z"/>
 <path d="M2505 651 c-3 -6 -5 -25 -4 -43 2 -18 -3 -43 -9 -55 -8 -13 -8 -24 -2 -28 13 -8 36 42 39 86 2 36 -12 59 -24 40z"/>
 <path d="M1660 365 c-7 -8 -10 -15 -6 -15 3 0 -5 -18 -19 -40 -13 -21 -20 -42 -15 -45 10 -6 40 34 44 58 1 8 8 22 14 30 8 9 9 18 4 21 -6 3 -15 -1 -22 -9z"/>
 <path d="M715 319 c-6 -9 14 -23 22 -15 3 3 21 -1 39 -9 39 -16 54 -4 21 18 -24 16 -74 20 -82 6z"/>
 <path d="M906 261 c-3 -5 22 -23 57 -40 53 -27 68 -31 100 -24 50 11 43 29 -10 25 -32 -2 -54 4 -86 23 -48 28 -53 29 -61 16z"/>
 <path d="M1145 231 c-3 -6 4 -15 15 -21 11 -6 20 -17 20 -24 0 -19 37 -50 45 -37 5 10 0 14 -15 13 -3 0 -6 11 -6 24 -3 41 -42 71 -59 45z"/>
 <path d="M1508 214 c-21 -13 -40 -24 -43 -24 -3 0 -6 0 -7 -1 -2 0 -11 -2 -21 -4 -28 -5 -68 -35 -62 -45 3 -5 24 2 45 15 22 14 40 22 40 19 0 -4 7 -1 15 6 8 7 15 10 15 6 0 -8 57 21 65 33 12 20 -12 18 -47 -5z"/>
 </g>
<g id="layer4" fill="#d1d8ec" stroke="none">
 <path d="M2710 4625 c-12 -13 -28 -35 -34 -47 -7 -13 -20 -23 -31 -23 -28 0 -29 -20 -1 -38 23 -15 29 -15 78 0 67 20 79 32 80 73 2 58 -51 79 -92 35z"/>
 <path d="M2904 4578 c-44 -68 -44 -71 -12 -104 24 -26 28 -36 20 -51 -24 -44 37 -73 71 -35 19 20 23 57 8 67 -14 8 -41 65 -41 85 0 9 -9 25 -19 34 -15 14 -21 15 -27 4z"/>
 <path d="M2823 4487 c-12 -19 -60 -47 -80 -47 -10 0 -27 6 -38 14 -11 7 -39 16 -62 18 -37 5 -46 2 -77 -27 -20 -18 -36 -42 -36 -54 0 -14 -8 -22 -27 -27 -74 -15 -90 -36 -53 -69 11 -10 20 -26 20 -35 0 -9 12 -30 26 -45 l25 -27 -28 -32 c-15 -17 -31 -35 -34 -39 -12 -16 -49 18 -55 50 -11 61 -42 65 -178 24 -64 -19 -69 -19 -91 -3 -22 16 -32 37 -51 96 -13 43 -58 65 -146 72 -71 6 -77 5 -87 -15 -7 -12 -9 -26 -6 -32 4 -5 2 -16 -4 -23 -8 -10 -29 -8 -101 10 -50 12 -97 27 -104 33 -6 5 -32 13 -56 17 -35 6 -54 17 -92 57 -43 44 -51 49 -80 43 -45 -9 -60 -25 -53 -55 11 -43 65 -145 94 -176 15 -16 35 -42 44 -57 10 -16 26 -28 37 -28 10 0 22 -5 25 -11 4 -6 21 -9 39 -8 51 4 139 -21 161 -47 25 -29 49 -35 50 -12 0 10 5 18 10 19 28 2 103 -15 127 -29 22 -13 29 -13 42 -3 9 8 16 20 16 28 0 9 6 12 18 9 10 -4 27 1 38 9 19 14 56 20 66 9 14 -13 -6 -43 -33 -49 -65 -15 -59 -61 30 -235 5 -8 19 -17 32 -18 13 -2 28 -10 34 -18 5 -8 23 -16 39 -17 23 -2 32 4 46 28 10 18 25 30 39 31 12 1 32 10 44 21 12 11 41 32 64 47 34 21 47 24 67 16 39 -14 106 -89 106 -116 0 -34 39 -51 79 -34 17 7 38 9 47 6 9 -3 28 3 44 14 35 25 40 25 40 1 0 -10 7 -25 16 -32 14 -11 20 -9 45 19 24 26 29 41 29 82 0 57 7 64 43 45 14 -7 34 -11 45 -9 10 3 38 -2 62 -10 63 -22 76 -20 102 14 26 36 32 37 70 5 16 -14 40 -25 52 -25 27 0 64 -33 89 -79 13 -25 22 -31 35 -26 9 4 31 9 49 12 27 5 32 2 35 -18 1 -13 10 -24 18 -25 42 -3 50 -5 49 -11 -3 -20 2 -24 15 -14 20 16 121 -22 168 -65 47 -42 62 -49 128 -64 39 -9 73 -9 118 -3 58 9 65 8 95 -14 27 -20 39 -23 77 -18 41 6 53 2 118 -35 62 -36 71 -44 60 -57 -9 -12 -24 -14 -63 -9 -169 22 -166 22 -200 -19 -20 -23 -44 -39 -66 -44 -37 -8 -37 -7 -20 -90 8 -37 8 -58 1 -65 -5 -5 -10 -18 -10 -28 0 -16 -6 -17 -52 -13 -126 14 -131 13 -143 -20 -12 -35 -24 -46 -46 -40 -8 3 -24 -2 -35 -10 -19 -15 -19 -15 0 -30 20 -15 20 -15 1 -29 -23 -17 -41 -10 -25 9 17 20 3 37 -19 26 -12 -7 -32 -5 -64 7 -67 24 -72 15 -51 -97 20 -110 26 -115 122 -105 50 5 78 14 112 36 31 21 65 33 113 40 54 8 71 15 83 34 9 13 13 28 9 33 -11 19 14 48 54 65 51 20 74 60 65 114 -7 43 12 72 46 72 10 0 39 9 65 20 56 24 118 26 135 4 8 -8 25 -14 39 -12 51 6 97 121 54 134 -10 3 -31 12 -48 19 l-30 14 41 0 c22 1 59 -8 82 -19 42 -20 43 -20 85 -2 23 10 60 36 82 56 39 36 42 37 103 33 l62 -5 0 141 c0 121 -2 142 -17 153 -17 13 -17 15 0 28 22 17 22 71 -1 96 -10 11 -26 45 -36 76 -20 62 -54 104 -85 104 -23 0 -81 -72 -81 -100 0 -10 -9 -29 -20 -43 -25 -32 -25 -52 0 -70 14 -10 18 -20 13 -33 -10 -26 -43 -73 -74 -106 l-26 -27 -54 19 c-29 11 -61 20 -69 20 -30 0 -40 15 -31 46 12 44 -12 94 -47 96 -39 2 -46 3 -57 9 -5 4 -27 12 -48 19 -35 11 -40 10 -58 -9 -11 -12 -27 -21 -37 -22 -38 -3 -68 4 -84 18 -31 27 -162 15 -236 -23 -13 -6 -32 -9 -44 -6 -17 4 -19 10 -14 44 6 35 3 42 -24 66 -29 26 -117 61 -152 62 -9 0 -29 15 -43 34 -31 41 -78 61 -163 71 -66 7 -87 22 -57 39 10 6 33 25 49 42 17 16 48 39 70 50 45 22 53 37 38 68 -27 60 -115 32 -222 -70 -82 -78 -118 -87 -156 -37 -24 32 -66 45 -78 24 -7 -11 -54 -3 -92 16 -31 16 -44 56 -23 69 4 2 6 11 3 19 -3 8 4 26 15 41 16 21 18 30 10 40 -14 17 -36 18 -46 1z m1117 -706 c0 -22 -37 -38 -52 -23 -6 6 -3 15 7 26 22 22 45 20 45 -3z"/>
 <path d="M0 4221 c0 -121 3 -150 15 -154 8 -4 25 -23 38 -44 18 -27 36 -41 66 -50 49 -16 88 -17 96 -3 10 17 58 11 90 -10 35 -23 79 -25 115 -6 37 21 55 5 86 -74 37 -94 50 -101 169 -96 125 6 153 23 151 93 l-1 47 -65 24 c-36 13 -75 26 -88 29 -30 7 -51 48 -33 66 9 9 19 8 43 -6 31 -18 32 -18 52 3 l21 20 -43 40 c-42 40 -65 48 -92 30 -10 -6 -22 -5 -35 4 -11 7 -38 19 -60 26 -22 7 -44 16 -50 20 -5 4 -26 11 -45 15 -19 4 -67 18 -107 31 -39 13 -84 24 -100 24 -17 0 -43 12 -63 29 -19 15 -63 42 -97 60 l-63 31 0 -149z"/>
 <path d="M3418 4295 c-17 -37 0 -59 46 -63 43 -4 86 19 82 44 -3 21 -21 30 -73 39 -40 6 -44 5 -55 -20z"/>
 <path d="M26 3863 c-23 -24 38 -160 68 -150 17 6 12 82 -7 111 -19 28 -51 49 -61 39z"/>
 <path d="M3011 3736 c-8 -10 -31 -14 -68 -13 -43 1 -58 -3 -69 -17 -17 -24 -5 -48 41 -76 19 -12 35 -26 35 -31 0 -10 33 -25 66 -31 11 -2 19 3 19 12 0 14 6 16 36 12 6 -1 9 -8 6 -16 -9 -22 12 -34 51 -30 21 3 44 0 52 -5 12 -8 12 -13 -4 -30 -10 -11 -15 -24 -11 -30 8 -14 205 -161 216 -161 13 0 20 18 10 24 -21 13 35 125 79 158 24 18 30 29 30 61 0 27 8 48 25 69 31 36 28 49 -11 60 -20 5 -40 3 -64 -9 -32 -15 -47 -17 -105 -12 -11 1 -41 -1 -67 -4 -34 -4 -48 -2 -52 8 -3 8 -22 17 -43 21 -21 4 -58 18 -82 31 -51 27 -74 29 -90 9z"/>
 <path d="M198 3714 c-26 -13 -27 -18 -21 -62 10 -73 9 -76 -12 -80 -11 -2 -28 -11 -39 -21 -24 -21 -15 -91 19 -142 22 -33 30 -38 78 -44 30 -4 58 -10 63 -13 20 -15 58 -77 63 -106 4 -16 11 -31 17 -33 6 -2 34 30 62 72 l52 75 -27 48 c-14 26 -43 62 -63 79 -28 24 -41 46 -50 83 -7 28 -16 52 -21 55 -4 3 -6 18 -3 33 6 31 -16 58 -40 49 -8 -3 -20 1 -26 9 -15 17 -18 17 -52 -2z"/>
 <path d="M1640 3244 c-75 -20 -113 -45 -124 -80 -5 -16 -12 -38 -16 -49 -5 -11 -11 -28 -14 -37 -3 -10 -13 -18 -21 -18 -12 0 -15 6 -10 19 11 35 -13 32 -43 -6 -33 -42 -67 -132 -55 -143 4 -4 39 -12 76 -18 56 -9 74 -8 105 5 20 9 51 17 67 18 17 1 45 5 63 10 25 6 32 4 32 -7 0 -42 76 -66 108 -34 15 14 14 18 -13 46 -16 16 -37 30 -47 30 -21 0 -24 23 -4 39 10 9 20 9 40 0 27 -13 35 -10 115 36 56 32 94 120 60 141 -6 3 -8 15 -6 26 4 14 -1 22 -19 28 -37 14 -232 10 -294 -6z"/>
 <path d="M2045 3200 c-6 -10 52 -90 66 -90 15 0 20 20 9 39 -14 28 -67 64 -75 51z"/>
 <path d="M1928 2905 c-16 -36 -1 -47 48 -37 33 7 39 12 39 32 0 22 -5 25 -37 28 -32 3 -40 -1 -50 -23z"/>
 <path d="M0 2849 c0 -45 4 -68 10 -64 6 4 25 -3 44 -14 57 -36 108 -21 118 34 6 37 40 24 52 -20 10 -33 18 -42 46 -51 19 -7 38 -10 43 -7 9 6 -3 145 -14 157 -11 12 -107 8 -133 -6 -14 -8 -28 -7 -50 4 -31 15 -97 38 -109 38 -4 0 -7 -32 -7 -71z"/>
 <path d="M2137 2874 c-3 -3 -27 -8 -54 -10 -69 -7 -74 -10 -71 -44 3 -36 12 -46 53 -54 37 -7 109 31 113 60 3 20 -30 59 -41 48z"/>
 <path d="M1374 2539 c-19 -31 8 -88 32 -68 19 15 18 32 -4 60 -15 18 -20 20 -28 8z"/>
 <path d="M636 2462 c-9 -15 88 -101 131 -116 23 -8 56 -25 72 -37 25 -19 34 -20 58 -11 62 24 98 29 132 17 47 -16 87 -7 114 24 12 15 31 30 41 34 44 17 -14 31 -251 63 -271 36 -289 38 -297 26z"/>
 <path d="M1236 2382 c-16 -27 47 -102 85 -102 9 0 40 -13 70 -30 30 -16 61 -30 70 -30 8 0 26 -11 39 -25 30 -32 43 -31 69 1 25 31 23 85 -3 112 -9 9 -28 32 -42 50 -29 36 -55 41 -83 13 -12 -12 -22 -16 -29 -9 -5 5 -22 11 -38 14 -101 14 -132 16 -138 6z"/>
 <path d="M164 2118 c-26 -41 3 -73 36 -43 19 17 19 19 4 37 -20 21 -30 23 -40 6z"/>
 <path d="M17 2005 c-14 -10 -17 -29 -17 -102 0 -85 1 -91 22 -96 16 -5 31 2 51 21 28 27 29 27 43 7 20 -26 14 -65 -11 -79 -11 -6 -30 -16 -43 -24 l-23 -13 23 -40 c30 -53 52 -72 101 -84 33 -8 42 -16 50 -40 5 -16 11 -36 13 -44 6 -17 39 11 60 50 7 14 26 32 42 38 26 11 34 9 65 -11 91 -58 110 -68 126 -68 10 0 24 -6 30 -14 6 -7 39 -19 74 -26 34 -6 72 -16 84 -22 17 -9 28 -5 57 17 41 31 44 43 18 75 -18 22 -46 27 -95 15 -19 -5 -33 -3 -45 7 -9 9 -29 18 -44 22 -15 3 -42 22 -61 41 -21 22 -44 35 -59 35 -34 0 -46 17 -50 70 -2 32 -7 45 -18 45 -9 0 -29 10 -45 21 -28 20 -48 26 -133 41 -18 3 -37 14 -43 24 -6 12 -21 19 -40 19 -30 0 -31 1 -24 38 5 34 3 41 -19 56 -45 29 -70 35 -89 21z"/>
 <path d="M404 1865 c-9 -23 8 -50 31 -50 28 0 28 19 0 45 -23 21 -25 22 -31 5z"/>
 <path d="M3557 1854 c-11 -11 -8 -62 3 -69 5 -3 15 6 22 20 9 21 9 29 -3 41 -8 8 -18 11 -22 8z"/>
 <path d="M3805 1820 c-19 -7 -38 -58 -54 -147 -4 -23 -15 -53 -24 -67 -33 -50 -26 -58 132 -160 l149 -95 39 18 c21 10 60 29 87 42 26 12 55 33 64 46 8 13 27 30 41 38 15 7 32 24 38 37 67 139 74 160 65 186 -8 26 -57 49 -68 31 -3 -5 -34 -9 -69 -9 -35 0 -67 -5 -70 -11 -4 -5 -18 -14 -31 -19 -13 -5 -29 -21 -34 -36 l-10 -26 -28 30 c-15 16 -36 32 -47 36 -11 3 -27 19 -37 35 -11 19 -29 33 -53 40 -21 5 -45 16 -54 24 -10 9 -24 12 -36 7z"/>
 <path d="M1768 1668 c-8 -7 -21 -27 -28 -43 -7 -17 -27 -37 -44 -46 -17 -9 -33 -24 -35 -34 -2 -11 -14 -36 -27 -57 -17 -27 -22 -45 -18 -67 6 -27 2 -31 -32 -49 -22 -11 -47 -34 -57 -51 -10 -17 -26 -31 -36 -31 -10 0 -24 -7 -31 -15 -17 -20 -48 -19 -95 5 -22 11 -43 20 -47 20 -26 0 -80 51 -104 98 -26 51 -57 81 -68 64 -2 -4 -1 -14 5 -22 5 -8 9 -35 9 -58 0 -24 7 -56 16 -70 12 -21 13 -33 5 -55 -12 -31 -32 -34 -76 -11 -16 8 -52 16 -80 18 -34 1 -64 11 -92 29 -24 15 -49 27 -56 27 -8 0 -34 11 -59 24 -24 13 -55 27 -69 31 -13 4 -32 14 -42 23 -46 41 -118 72 -174 75 -42 2 -49 -1 -60 -24 -20 -41 -1 -88 53 -131 36 -29 56 -38 85 -38 40 0 88 -22 125 -57 13 -13 30 -23 38 -23 37 0 147 -45 178 -72 l33 -29 -68 5 c-38 3 -76 1 -85 -4 -9 -5 -25 -11 -35 -14 -31 -10 -19 -66 20 -89 30 -17 34 -17 64 -2 29 16 34 16 64 -1 44 -24 65 -14 65 31 0 20 -4 45 -10 55 -8 16 -5 19 19 25 19 4 38 1 53 -8 45 -29 82 -29 165 -2 45 16 91 25 108 22 25 -4 58 13 189 95 207 129 249 163 243 197 -6 31 18 75 50 92 20 11 30 11 56 0 57 -23 72 -23 91 -2 18 20 18 21 -6 30 -21 8 -25 15 -21 36 7 33 -16 58 -67 75 -22 7 -45 19 -51 27 -14 16 -40 17 -61 1z"/>
 <path d="M4717 1583 c-4 -3 -31 -7 -59 -7 l-53 -1 3 -55 c1 -30 5 -69 8 -87 8 -42 65 -103 96 -103 13 0 28 -4 34 -9 5 -5 19 -12 32 -16 22 -6 22 -6 22 112 0 118 0 120 -28 146 -28 27 -43 33 -55 20z"/>
 <path d="M206 1121 c-9 -14 21 -121 39 -141 8 -9 15 -24 15 -33 0 -14 42 -63 148 -175 20 -21 34 -49 38 -73 8 -46 42 -86 81 -94 15 -3 41 -12 56 -20 56 -29 63 3 12 58 -19 21 -35 41 -35 46 0 4 -13 25 -29 47 -21 30 -30 54 -34 103 -6 73 -13 83 -59 86 -18 1 -42 5 -53 9 -85 35 -95 42 -104 75 -6 18 -17 41 -25 50 -8 9 -16 27 -18 40 -3 26 -22 39 -32 22z"/>
 <path d="M4465 1081 c-3 -5 0 -13 5 -16 7 -5 6 -11 -5 -19 -14 -10 -14 -14 0 -42 25 -51 10 -118 -37 -164 -21 -21 -38 -45 -38 -53 0 -8 -9 -26 -21 -41 -11 -14 -19 -34 -18 -43 3 -33 -1 -39 -42 -62 -34 -19 -45 -21 -65 -12 -14 6 -32 11 -41 11 -19 0 -83 -47 -83 -61 0 -6 -13 -24 -30 -41 -18 -18 -30 -40 -30 -56 0 -27 -33 -92 -47 -92 -3 0 -14 6 -22 14 -21 17 -77 36 -109 36 -14 0 -54 -7 -89 -16 -94 -23 -96 -22 -210 102 -13 14 -34 24 -50 24 -55 1 -104 71 -55 78 13 2 32 -4 41 -12 15 -14 24 -14 47 -5 l29 11 -54 50 c-48 44 -58 49 -85 43 -95 -20 -104 -19 -160 19 -31 20 -58 41 -61 46 -3 6 -23 10 -44 10 -37 0 -38 1 -38 37 0 25 7 43 20 54 12 9 21 30 22 53 1 20 10 45 20 56 9 10 15 27 13 37 -3 17 -19 18 -241 18 -233 0 -282 -7 -211 -30 17 -6 44 -25 60 -44 15 -19 47 -42 70 -52 41 -18 55 -19 141 -4 l43 8 -11 -32 c-9 -26 -8 -40 6 -72 16 -35 16 -41 3 -57 -27 -31 -28 -51 -5 -95 60 -110 75 -128 163 -187 21 -14 54 -42 74 -62 32 -33 43 -38 83 -38 25 0 48 -4 52 -9 3 -5 27 -17 53 -25 37 -12 50 -23 59 -46 19 -49 61 -67 156 -65 123 3 125 3 149 27 24 24 69 28 135 13 26 -6 43 0 102 34 61 36 74 48 92 90 22 52 77 111 124 132 16 8 39 29 50 46 11 18 30 36 43 39 49 13 88 107 118 279 4 20 17 38 40 53 35 23 41 40 24 72 -18 35 -122 81 -135 61z"/>
 <path d="M2407 1043 c-14 -13 -6 -23 29 -38 30 -12 35 -19 32 -42 -3 -24 -8 -28 -38 -31 -19 -2 -41 -8 -47 -14 -17 -14 -16 -43 2 -58 11 -9 12 -17 4 -31 -5 -10 -7 -19 -3 -19 3 0 1 -7 -6 -15 -7 -8 -10 -21 -7 -28 14 -38 -77 -157 -120 -157 -27 0 -53 -31 -63 -76 -11 -47 2 -73 40 -80 26 -6 27 -8 17 -26 -10 -17 -9 -22 11 -35 24 -17 29 -47 10 -60 -7 -4 -31 -10 -53 -13 -34 -4 -43 -11 -58 -42 -12 -25 -25 -38 -38 -38 -11 0 -29 -5 -40 -11 -30 -15 -106 22 -119 59 -16 44 -25 56 -54 70 -33 17 -69 73 -95 148 -11 32 -30 68 -44 79 -48 39 -61 100 -32 143 17 23 11 28 -128 117 -18 11 -45 34 -60 52 -39 44 -79 45 -104 3 -17 -30 -55 -41 -68 -20 -10 16 -51 11 -68 -8 -37 -41 -6 -89 63 -98 25 -3 51 -7 57 -9 7 -3 28 5 47 16 35 20 35 20 73 0 56 -28 68 -45 51 -69 -19 -28 -151 -132 -166 -132 -8 0 -28 -6 -45 -14 -48 -22 -125 -46 -147 -46 -11 0 -20 7 -20 15 0 26 -75 56 -133 53 -50 -3 -52 -4 -50 -30 1 -15 13 -43 27 -61 14 -19 26 -39 26 -46 0 -6 11 -16 25 -21 34 -13 42 -37 19 -55 -80 -61 -92 -66 -130 -59 -21 4 -47 18 -59 30 -12 13 -32 24 -45 24 -13 0 -36 15 -54 34 -18 19 -63 47 -106 66 -41 18 -85 41 -97 52 -22 20 -43 17 -43 -6 0 -7 13 -37 30 -67 16 -30 30 -64 30 -76 0 -28 45 -63 81 -63 16 0 48 -11 71 -24 24 -13 60 -26 82 -30 21 -4 56 -19 77 -33 33 -21 45 -24 86 -18 27 3 55 10 62 14 24 15 58 0 72 -32 12 -27 21 -33 59 -38 25 -3 58 -11 74 -18 25 -10 34 -9 55 7 14 10 53 29 86 42 33 13 74 36 90 52 17 15 38 28 46 28 21 0 43 26 63 73 8 20 23 40 33 43 10 3 25 9 34 14 13 7 27 -2 57 -33 21 -23 54 -52 71 -65 17 -13 31 -32 31 -42 0 -22 72 -109 105 -127 18 -10 37 -10 94 1 64 12 77 19 110 55 21 23 45 41 53 41 22 0 47 32 52 66 3 16 8 45 11 65 4 30 14 42 60 73 30 20 61 36 68 36 42 0 82 98 74 183 -3 34 -2 71 2 82 5 11 4 30 -2 43 -9 20 -4 29 42 76 46 47 54 60 66 121 8 37 12 72 9 76 -6 10 -217 12 -227 2z m-877 -650 c0 -7 -9 -17 -20 -23 -11 -6 -20 -20 -20 -31 0 -11 -7 -30 -16 -43 -20 -32 -106 -46 -132 -23 -9 9 -29 20 -45 26 -25 10 -26 13 -15 31 7 12 39 34 71 50 48 24 70 29 118 27 38 -1 59 -6 59 -14z"/>
 <path d="M4206 722 c-9 -14 31 -45 49 -38 25 9 13 41 -17 44 -14 2 -29 -1 -32 -6z"/>
 <path d="M1027 703 c-11 -10 -8 -38 5 -51 9 -9 16 -8 30 5 17 15 17 17 2 35 -18 19 -27 22 -37 11z"/>
 </g>
<g id="layer5" fill="#3364a8" stroke="none">
 <path d="M0 4751 c0 -43 5 -55 34 -86 31 -33 38 -36 72 -29 36 7 37 6 29 -17 -5 -13 -9 -51 -9 -84 -1 -33 -5 -70 -9 -83 -6 -17 -4 -29 8 -42 17 -19 18 -19 45 0 40 29 59 25 75 -14 19 -46 49 -54 88 -26 27 21 33 22 65 10 19 -7 47 -13 63 -14 40 -3 44 -11 20 -42 -46 -59 -16 -110 71 -121 27 -4 55 -17 76 -34 37 -33 50 -36 58 -14 9 23 72 2 126 -41 27 -22 32 -22 129 1 22 6 31 1 57 -36 18 -24 32 -48 32 -54 0 -6 -14 -27 -31 -48 -25 -30 -37 -37 -66 -37 -28 0 -43 -8 -70 -37 -19 -20 -39 -47 -44 -60 -5 -13 -20 -28 -34 -33 -38 -15 -202 -19 -220 -6 -9 6 -33 45 -53 86 -42 86 -68 97 -106 47 -19 -26 -19 -30 -5 -40 9 -7 26 -32 37 -57 12 -25 40 -67 62 -95 44 -55 48 -74 24 -110 -17 -27 -39 -24 -47 7 -3 11 -12 18 -19 16 -9 -3 -12 -25 -9 -84 3 -89 21 -125 70 -142 26 -9 35 -6 82 29 105 80 201 129 359 185 52 18 100 40 106 48 7 10 14 12 21 5 6 -6 33 -4 79 7 133 30 330 54 499 60 161 6 171 8 196 30 23 22 30 23 75 15 28 -5 70 -17 95 -25 59 -21 68 -20 80 7 9 19 5 36 -20 92 -17 37 -31 82 -31 100 0 34 -25 65 -54 65 -9 0 -29 -6 -44 -14 -76 -38 -153 -27 -199 29 -30 36 -82 55 -149 55 -24 0 -60 10 -85 23 -24 13 -49 22 -56 20 -13 -5 -53 65 -53 92 0 8 -16 32 -35 54 -19 21 -35 44 -35 50 0 7 -21 35 -47 63 -43 46 -48 55 -48 98 0 53 24 90 58 90 24 0 103 -49 137 -85 13 -14 29 -25 36 -25 7 0 18 -8 23 -19 14 -25 36 -32 66 -21 16 6 34 6 51 0 15 -6 61 -12 103 -14 58 -2 84 1 110 15 35 19 35 19 116 -17 6 -3 18 -23 28 -44 14 -30 30 -45 64 -60 25 -11 50 -20 55 -20 6 0 27 -13 48 -30 44 -35 63 -37 122 -11 62 26 70 40 66 112 -3 62 -3 62 43 112 41 43 51 48 76 43 21 -5 40 1 76 24 45 28 47 32 47 74 l0 45 38 -4 c21 -2 49 -8 62 -13 15 -6 35 -6 49 0 14 5 48 9 77 10 43 1 61 -4 101 -30 27 -18 56 -32 64 -32 36 -1 96 -39 103 -64 8 -32 41 -47 77 -34 22 7 35 3 80 -27 36 -24 61 -34 74 -30 69 21 92 24 123 14 22 -7 32 -17 32 -31 0 -34 40 -80 65 -76 18 4 27 -4 45 -37 13 -24 20 -47 15 -54 -4 -7 -26 -21 -50 -31 -24 -10 -46 -23 -49 -28 -8 -13 48 -72 68 -72 18 0 93 -38 102 -51 3 -5 19 -9 36 -9 17 0 51 -12 75 -26 47 -27 116 -38 238 -36 60 1 73 5 91 25 19 22 25 23 115 20 52 -2 105 -4 118 -5 15 0 34 13 52 35 16 20 42 38 58 42 17 4 54 32 90 70 34 35 63 63 65 62 1 -1 16 11 33 27 35 33 92 56 141 56 l32 0 0 126 0 127 -31 -7 c-17 -3 -38 -6 -45 -6 -14 0 -44 -48 -54 -85 -4 -13 -15 -20 -30 -21 -14 0 -42 -6 -64 -13 -51 -18 -107 -9 -149 23 -19 14 -38 26 -43 26 -6 0 -27 18 -48 39 -38 39 -39 40 -22 65 9 15 20 26 24 27 70 7 132 7 137 -1 8 -14 101 -13 140 1 22 8 54 9 109 2 l77 -9 -3 39 c-3 38 -5 41 -48 54 -25 7 -61 11 -80 9 -24 -4 -40 0 -53 12 -11 9 -33 19 -51 20 -17 2 -231 6 -475 8 -391 4 -446 3 -453 -11 -12 -20 -74 -20 -112 0 -24 13 -113 15 -608 15 l-580 0 44 -33 c52 -39 58 -65 22 -91 -21 -15 -30 -17 -43 -7 -34 24 -43 23 -80 -13 -30 -29 -48 -38 -89 -43 -34 -4 -58 -13 -72 -28 -22 -24 -46 -24 -85 1 -11 7 -60 16 -110 19 -49 4 -112 16 -140 26 -63 24 -82 24 -122 0 -30 -19 -34 -19 -83 -3 -38 12 -55 13 -68 5 -39 -24 -81 -25 -123 -4 -27 14 -56 21 -89 20 -41 -2 -54 -7 -81 -35 -26 -27 -31 -38 -27 -66 3 -20 -1 -42 -10 -57 -15 -22 -15 -25 6 -41 12 -10 31 -16 42 -13 27 7 87 -58 102 -112 7 -22 25 -55 41 -74 25 -30 49 -73 51 -94 1 -4 7 -11 14 -16 22 -13 -28 -28 -93 -26 -33 2 -82 8 -110 14 -32 7 -59 8 -76 2 -16 -5 -32 -5 -44 2 -11 6 -38 14 -60 18 -26 5 -54 21 -79 43 -20 20 -41 36 -46 36 -5 0 -25 25 -44 54 -19 30 -48 63 -63 72 -15 9 -41 26 -56 36 -33 23 -92 35 -100 20 -8 -11 -57 -3 -57 10 0 5 -14 14 -30 20 -17 5 -30 15 -29 22 3 26 -3 36 -28 49 -16 7 -35 12 -43 10 -16 -4 -44 53 -34 69 8 12 -32 73 -67 103 -18 14 -43 25 -60 25 -32 0 -79 38 -79 65 0 13 -18 15 -120 15 l-120 0 0 -49z m3788 -51 c45 -17 44 -55 -3 -106 -20 -22 -42 -47 -50 -56 -12 -14 -26 -16 -87 -11 -40 3 -81 11 -91 18 -10 7 -27 11 -38 8 -15 -4 -19 0 -19 20 0 22 4 25 26 24 28 -2 32 3 64 75 19 44 22 47 62 50 46 3 84 -3 136 -22z m306 -64 c8 -14 25 -26 37 -28 32 -4 47 -33 31 -58 -15 -24 -16 -66 -1 -76 6 -3 9 -18 6 -31 -4 -19 4 -35 34 -65 27 -28 39 -49 39 -69 0 -16 -3 -29 -7 -29 -9 0 -73 71 -73 81 0 4 -13 16 -30 25 -16 10 -37 34 -46 54 -9 19 -30 50 -45 68 -16 18 -29 40 -29 48 0 19 49 104 60 104 4 0 15 -11 24 -24z m320 -297 c55 -24 51 -42 -6 -35 -47 5 -61 16 -52 39 8 21 2 21 58 -4z m-3233 -429 c10 -6 19 -19 19 -29 0 -10 9 -26 20 -36 11 -10 20 -26 20 -37 0 -17 -3 -17 -48 6 -27 13 -54 31 -61 40 -7 8 -26 18 -42 21 -16 4 -29 11 -29 17 0 6 10 8 23 5 12 -3 33 1 47 8 31 17 27 17 51 5z"/>
 <path d="M0 3578 c0 -414 1 -426 20 -431 10 -3 27 1 37 9 23 17 54 18 78 0 22 -16 141 -10 165 8 8 7 28 18 44 24 25 11 28 16 22 45 -3 18 -15 44 -26 59 -11 15 -20 31 -20 36 0 5 -7 15 -16 22 -13 11 -16 10 -21 -8 -7 -29 -17 -28 -31 3 -7 14 -23 27 -39 30 -46 10 -57 20 -77 71 -10 27 -25 62 -33 77 -14 26 -14 28 4 25 13 -2 19 4 21 26 5 38 -16 116 -38 141 -37 43 -68 110 -61 130 13 35 5 125 -13 143 -15 15 -16 -15 -16 -410z"/>
 <path d="M3145 3898 c-14 -21 -14 -24 2 -35 40 -30 84 -3 57 35 -19 28 -39 28 -59 0z"/>
 <path d="M2405 3886 c-49 -22 -77 -59 -69 -90 12 -51 79 -62 120 -21 21 21 25 33 22 73 -3 53 -20 62 -73 38z"/>
 <path d="M2606 3728 c-9 -12 -12 -25 -8 -29 4 -4 36 -14 72 -22 36 -9 74 -19 85 -22 24 -7 75 28 75 50 0 16 -49 45 -75 45 -8 0 -20 -12 -26 -27 l-10 -28 -21 28 c-25 34 -70 37 -92 5z"/>
 <path d="M3599 3702 c-1 -4 0 -18 0 -32 3 -37 -39 -95 -69 -95 -20 0 -26 -8 -37 -50 -13 -53 -13 -53 33 -80 15 -10 16 -16 4 -63 -19 -72 -6 -86 104 -108 11 -3 30 6 44 18 30 28 72 121 72 158 0 15 7 33 15 40 8 7 15 21 15 31 0 10 9 27 21 38 l21 19 -24 12 c-12 7 -43 29 -68 49 -45 37 -129 78 -131 63z"/>
 <path d="M3942 3572 c-33 -10 -26 -27 9 -24 22 2 38 -6 60 -28 17 -17 35 -27 41 -24 5 3 7 8 4 11 -3 3 -1 14 4 24 20 36 -50 60 -118 41z"/>
 <path d="M3036 3561 c-7 -10 3 -18 68 -55 47 -28 49 -28 67 -9 18 17 18 20 3 42 -14 20 -22 22 -55 17 -21 -3 -40 -2 -44 4 -8 12 -32 13 -39 1z"/>
 <path d="M4629 3500 c-53 -49 -104 -67 -147 -52 -37 13 -52 0 -52 -43 0 -44 -26 -92 -53 -99 -13 -3 -32 1 -47 12 -28 21 -73 20 -133 -3 -20 -8 -47 -15 -58 -15 -11 0 -31 -11 -45 -25 -20 -21 -23 -31 -18 -63 8 -49 -17 -102 -47 -102 -32 0 -79 -53 -79 -89 0 -17 -3 -31 -7 -32 -92 -8 -121 -16 -176 -50 -41 -25 -61 -30 -134 -34 l-86 -4 2 -393 c1 -216 5 -397 8 -402 3 -5 11 -2 17 6 28 37 101 53 132 27 12 -10 15 -23 10 -55 -4 -33 -1 -48 15 -68 11 -14 26 -26 33 -26 28 0 63 -26 86 -63 14 -21 38 -46 54 -54 16 -8 48 -35 72 -60 24 -24 50 -43 56 -41 7 3 14 20 16 39 l3 35 48 -6 c27 -3 61 -14 76 -24 19 -12 37 -16 59 -12 22 4 48 0 78 -14 58 -25 66 -52 37 -114 -25 -55 -19 -82 26 -103 18 -9 38 -26 43 -39 9 -18 7 -27 -14 -49 -22 -24 -27 -26 -42 -13 -18 15 -88 38 -117 38 -9 0 -31 -16 -48 -36 -32 -36 -94 -74 -120 -74 -8 0 -22 -12 -32 -26 -22 -34 -18 -37 119 -123 85 -54 121 -71 148 -71 50 0 99 -23 126 -59 26 -36 78 -66 87 -51 11 18 30 10 47 -20 10 -17 25 -30 37 -30 29 0 15 -36 -19 -50 -38 -16 -56 -38 -64 -80 -16 -84 -23 -109 -45 -169 -19 -47 -33 -69 -56 -82 -17 -11 -46 -37 -64 -59 -17 -22 -37 -40 -42 -40 -26 0 -103 -78 -125 -127 -17 -37 -36 -60 -62 -76 -73 -44 -89 -50 -129 -43 -68 12 -92 9 -130 -17 -35 -24 -46 -26 -143 -26 -113 0 -128 5 -151 54 -8 16 -25 35 -39 42 -94 46 -115 53 -150 53 -31 0 -43 5 -56 26 -9 14 -30 32 -47 41 -85 44 -135 96 -184 193 -27 54 -28 64 -6 100 15 26 15 30 -1 65 -13 28 -15 43 -8 65 14 38 0 50 -46 39 -84 -19 -149 -1 -202 56 -33 37 -102 65 -155 65 -51 0 -61 -11 -71 -81 -8 -53 -24 -81 -81 -136 -39 -38 -42 -44 -32 -67 9 -19 9 -32 0 -55 -9 -21 -10 -35 -2 -49 17 -31 13 -74 -10 -126 -16 -37 -29 -51 -66 -68 -25 -12 -63 -38 -84 -58 -32 -30 -39 -44 -39 -74 0 -52 -25 -106 -48 -106 -11 0 -37 -17 -58 -39 -39 -38 -63 -47 -155 -58 -45 -5 -47 -4 -87 44 -23 26 -42 55 -42 63 0 8 -36 49 -80 92 l-80 77 -37 -13 c-31 -10 -43 -23 -63 -64 -15 -32 -31 -52 -41 -52 -9 0 -34 -16 -54 -35 -21 -19 -55 -40 -74 -46 -20 -6 -57 -23 -83 -38 -44 -24 -50 -25 -80 -12 -18 8 -50 13 -70 12 -34 -1 -39 2 -52 32 -15 37 -53 54 -84 39 -48 -25 -90 -23 -148 8 -31 16 -65 30 -75 30 -9 0 -40 11 -67 25 -28 14 -63 27 -79 29 -46 6 -63 17 -69 45 -3 14 -18 52 -35 84 -20 40 -27 66 -23 83 8 30 -28 74 -60 74 -44 0 -82 35 -95 86 -7 26 -22 57 -34 69 -12 12 -35 39 -52 60 -16 21 -43 51 -58 67 -57 55 -119 207 -96 234 7 8 9 28 6 49 -4 27 0 42 23 73 16 22 33 43 39 47 18 11 12 61 -9 80 -11 10 -20 28 -20 40 0 12 -9 34 -20 47 -14 19 -18 34 -13 61 4 29 1 40 -20 61 -15 15 -37 26 -53 26 -37 0 -80 50 -98 114 -9 30 -16 61 -16 70 0 8 -9 20 -20 26 -20 11 -20 8 -20 -905 l0 -915 2400 0 2400 0 0 659 0 658 -60 17 c-44 12 -69 27 -92 52 -17 19 -37 34 -44 34 -22 0 -27 20 -9 40 21 23 17 49 -10 64 -30 17 -35 29 -19 47 7 8 14 32 14 52 0 29 -10 47 -50 93 -72 82 -66 107 17 79 58 -20 148 -87 166 -124 12 -25 20 -27 75 -22 10 1 12 193 10 944 l-3 942 -61 3 c-58 3 -62 2 -105 -38z"/>
 <path d="M1965 3218 c-2 -7 -6 -33 -10 -58 -6 -43 -33 -90 -53 -90 -5 0 -17 -9 -27 -20 -15 -16 -16 -22 -5 -35 19 -23 65 -45 93 -45 12 0 27 -4 33 -10 5 -5 50 -11 99 -12 l90 -3 -2 42 c-2 57 -37 133 -60 133 -10 0 -38 25 -62 55 -31 39 -51 55 -68 55 -13 0 -25 -6 -28 -12z"/>
 <path d="M1735 3020 c-19 -21 -14 -50 9 -50 19 0 40 36 32 56 -7 19 -20 18 -41 -6z"/>
 <path d="M1647 2955 c-21 -7 -46 -20 -55 -28 -29 -24 -51 -27 -95 -12 -54 19 -131 19 -146 1 -26 -31 -15 -323 12 -330 95 -27 126 -41 160 -73 39 -39 47 -72 22 -93 -22 -18 -18 -54 11 -97 21 -31 25 -45 19 -78 -11 -71 -35 -82 -80 -35 -16 17 -34 30 -40 30 -6 0 -42 9 -79 21 -67 21 -126 60 -126 83 0 21 -37 48 -61 44 -15 -2 -26 -14 -33 -35 -14 -41 -16 -42 -57 -45 -18 -1 -55 -10 -81 -19 -27 -10 -48 -13 -48 -8 0 5 -9 18 -20 29 -19 19 -22 19 -50 5 -32 -16 -54 -11 -79 19 -7 8 -29 20 -49 27 -20 6 -56 27 -79 45 -23 19 -49 34 -59 34 -9 0 -31 11 -48 23 -37 29 -120 41 -137 21 -7 -8 -8 -25 -3 -46 5 -18 7 -50 5 -70 -2 -27 2 -40 13 -44 9 -3 14 -10 11 -14 -3 -4 -7 -27 -10 -50 -3 -23 -10 -50 -15 -60 -17 -32 -11 -61 18 -88 32 -31 52 -63 52 -87 0 -9 10 -29 22 -46 19 -25 20 -33 10 -49 -7 -11 -12 -24 -12 -30 0 -6 -9 -24 -21 -39 -20 -27 -20 -30 -5 -59 9 -17 16 -43 16 -57 0 -33 46 -95 71 -95 10 0 21 -5 24 -10 4 -6 11 -7 17 -4 5 4 20 1 31 -4 12 -6 38 -15 57 -20 27 -6 37 -15 45 -39 13 -40 30 -58 65 -73 20 -8 34 -9 43 -3 29 23 48 23 58 -1 6 -13 24 -33 40 -45 l28 -21 25 23 c13 12 41 35 60 50 20 15 36 33 36 40 0 7 10 12 23 13 12 0 30 4 40 8 15 7 17 2 17 -46 0 -53 18 -88 46 -88 6 0 25 -15 43 -32 30 -30 39 -33 90 -32 66 1 118 25 174 79 26 25 36 42 32 54 -20 48 -17 91 9 135 14 24 35 47 45 51 11 3 26 17 35 30 14 21 19 23 51 14 20 -6 50 -7 67 -4 27 6 36 1 93 -57 35 -36 73 -84 84 -107 12 -22 26 -41 31 -41 10 0 165 95 193 118 16 14 17 46 15 456 l-3 441 -27 13 c-37 17 -52 46 -38 72 10 19 16 22 50 24 12 1 14 17 11 96 -3 104 -8 121 -26 97 -20 -28 -82 -66 -120 -73 l-35 -6 0 44 c0 61 -18 83 -60 74 -22 -4 -39 -2 -49 8 -28 24 -74 31 -137 20 -42 -6 -42 -7 -82 43 -16 21 -19 21 -55 8z"/>
 <path d="M35 2727 l-35 -35 0 -200 0 -201 57 -18 c51 -16 58 -21 61 -47 2 -16 11 -40 19 -53 13 -20 23 -23 72 -22 54 2 101 21 101 41 0 6 16 28 35 49 19 22 35 47 35 57 0 10 5 23 11 29 9 9 8 18 -5 37 -21 33 -20 45 9 99 14 27 20 49 15 52 -6 4 -10 3 -10 -1 0 -4 -10 2 -22 13 -13 11 -33 25 -44 31 -14 7 -24 25 -29 49 -8 46 -52 113 -73 113 -9 0 -23 7 -33 16 -9 8 -42 18 -73 21 -53 6 -57 4 -91 -30z"/>
 <path d="M317 2683 c-4 -3 -2 -12 4 -20 6 -7 9 -13 5 -13 -4 0 1 -15 11 -32 9 -18 17 -36 18 -40 0 -5 3 -8 8 -8 4 0 10 0 13 0 4 0 1 7 -6 15 -7 8 -10 15 -6 15 4 0 -1 15 -11 33 -9 17 -17 35 -18 39 0 11 -11 18 -18 11z"/>
 <path d="M25 2110 c-4 -6 -11 -8 -16 -5 -5 4 -9 -12 -9 -34 0 -34 3 -41 19 -41 11 0 23 -4 26 -10 12 -19 55 -11 65 13 7 18 3 28 -26 55 -35 34 -49 39 -59 22z"/>
 <path d="M252 2102 l-24 -18 21 -36 c16 -26 28 -35 47 -35 14 0 35 -10 48 -22 18 -17 31 -20 61 -16 51 6 66 22 40 41 -11 8 -38 32 -60 53 -49 47 -99 59 -133 33z"/>
 <path d="M3555 1988 c-9 -24 -2 -93 10 -93 14 0 19 85 6 98 -7 7 -12 5 -16 -5z"/>
 <path d="M3655 1841 c-6 -5 -23 -11 -40 -13 -20 -2 -31 -9 -33 -23 -2 -11 -11 -27 -19 -36 -13 -15 -12 -19 9 -33 30 -21 43 -20 60 6 14 20 18 21 42 10 37 -17 60 -15 79 6 25 28 21 50 -15 72 -35 21 -68 26 -83 11z"/>
 <path d="M1859 1509 c-8 -5 -23 -9 -35 -9 -32 0 -64 -51 -60 -97 2 -21 7 -37 10 -36 4 1 43 25 88 53 77 49 79 52 63 69 -20 23 -48 31 -66 20z"/>
 <path d="M372 1438 c-7 -7 -12 -19 -12 -28 0 -9 -5 -21 -12 -28 -9 -9 -6 -18 15 -40 15 -15 27 -33 27 -39 0 -6 7 -16 15 -23 8 -7 15 -16 15 -21 0 -5 -7 -6 -15 -3 -34 14 -43 -2 -33 -58 7 -39 18 -62 43 -88 19 -19 43 -45 54 -57 23 -25 63 -30 79 -10 24 29 52 89 46 98 -3 6 -17 14 -30 19 -16 6 -24 17 -24 33 0 31 -26 53 -75 62 l-40 7 53 24 c28 14 52 28 52 33 0 4 -10 16 -21 27 -12 10 -25 29 -30 42 -5 12 -17 22 -26 22 -10 0 -24 9 -31 20 -14 23 -32 26 -50 8z"/>
 <path d="M689 1253 c-1 -5 -1 -11 0 -15 0 -5 -5 -8 -13 -8 -22 0 -76 -49 -76 -69 0 -10 13 -32 29 -50 27 -30 29 -38 29 -113 1 -45 6 -102 11 -127 6 -25 13 -67 16 -93 5 -38 12 -52 36 -69 21 -14 33 -18 42 -11 26 22 69 8 93 -29 28 -45 68 -56 89 -26 8 12 25 22 38 22 35 2 47 13 47 46 0 34 25 60 77 84 32 14 40 29 45 90 3 28 6 30 55 35 28 3 60 13 70 21 20 18 145 66 183 71 14 2 25 9 25 18 0 12 -20 16 -99 20 l-100 5 43 28 c32 21 40 32 32 40 -11 11 -53 5 -146 -23 -53 -16 -103 -14 -141 6 -39 21 -91 8 -86 -22 3 -16 26 -70 39 -95 5 -9 -69 6 -93 19 -16 9 -26 8 -43 -4 -40 -29 -111 18 -111 74 0 18 10 27 46 42 37 16 45 24 42 42 -2 18 -16 27 -67 44 -35 12 -68 29 -73 38 -9 16 -37 22 -39 9z"/>
 <path d="M1523 1040 c-44 -18 -19 -49 37 -47 55 1 98 -34 91 -76 -5 -30 118 -157 153 -157 8 0 29 21 46 46 36 51 70 58 77 14 2 -13 8 -29 13 -34 14 -14 12 -82 -2 -106 -10 -16 -9 -23 11 -44 13 -14 35 -26 50 -28 17 -2 26 -9 26 -20 0 -9 18 -30 40 -47 l39 -29 41 20 c22 12 64 45 93 73 50 51 52 55 52 108 0 36 -5 59 -15 67 -10 8 -15 30 -15 61 0 39 3 49 18 51 9 0 22 2 29 2 20 2 33 21 39 57 9 54 6 73 -12 86 -20 15 -775 17 -811 3z"/>
 <path d="M3555 1039 c-4 -6 -4 -13 -1 -17 4 -3 -11 -24 -32 -46 -22 -23 -50 -60 -63 -84 l-23 -43 47 -46 c47 -44 57 -66 37 -78 -14 -9 7 -35 26 -35 8 0 14 -4 14 -9 0 -21 62 -72 81 -66 13 4 22 -2 34 -24 12 -25 22 -31 48 -31 29 0 45 -8 126 -62 36 -25 56 -23 117 13 69 39 142 110 149 146 4 15 15 47 26 70 11 24 18 47 15 51 -3 5 3 22 14 39 15 25 18 47 16 123 -2 65 -7 95 -17 101 -21 13 -606 12 -614 -2z"/>
 <path d="M4311 951 c-11 -11 -22 -27 -22 -33 -4 -35 4 -104 13 -115 15 -18 42 -16 61 5 23 25 15 119 -12 145 -18 19 -19 19 -40 -2z"/>
 <path d="M721 546 c-13 -15 -9 -20 32 -35 38 -15 43 4 8 28 -24 18 -31 19 -40 7z"/>
 </g>
<g id="layer6" fill="#e37000" stroke="none">
 <path d="M1560 3784 c-19 -2 -78 -9 -130 -15 -234 -26 -475 -91 -641 -173 -238 -118 -403 -289 -469 -486 -32 -93 -39 -273 -15 -370 23 -95 104 -254 130 -258 11 -2 233 -31 494 -66 386 -51 474 -60 478 -49 3 8 -4 62 -15 121 -37 187 -45 272 -33 365 24 201 101 310 255 364 40 14 82 18 196 18 145 0 146 0 213 -33 157 -77 176 -195 177 -1062 l0 -485 -370 -235 c-565 -358 -582 -369 -575 -380 8 -13 3241 -14 3249 -1 8 13 -15 30 -229 163 -110 69 -312 197 -450 285 l-250 160 -6 639 c-5 524 -9 652 -22 709 -47 214 -129 324 -348 471 -225 150 -514 248 -889 300 -109 15 -660 28 -750 18z"/>
 </g>

</svg>